<svg width="20" height="5" viewBox="0 0 20 5" fill="none" xmlns="http://www.w3.org/2000/svg">
<path d="M2.66666 4.36663C1.63573 4.36663 0.799992 3.5309 0.799992 2.49997C0.799992 1.46904 1.63573 0.633301 2.66666 0.633301C3.69759 0.633301 4.53333 1.46904 4.53333 2.49997C4.53333 3.5309 3.69759 4.36663 2.66666 4.36663Z" fill="#858585"/>
<path d="M8.4 4.36663C7.36906 4.36663 6.53333 3.5309 6.53333 2.49997C6.53333 1.46904 7.36906 0.633301 8.4 0.633301C9.43093 0.633301 10.2667 1.46904 10.2667 2.49997C10.2667 3.5309 9.43093 4.36663 8.4 4.36663Z" fill="#858585"/>
<path d="M14.1333 4.36663C13.1024 4.36663 12.2667 3.5309 12.2667 2.49997C12.2667 1.46904 13.1024 0.633301 14.1333 0.633301C15.1643 0.633301 16 1.46904 16 2.49997C16 3.5309 15.1643 4.36663 14.1333 4.36663Z" fill="#858585"/>
</svg>
