<svg width="57" height="56" viewBox="0 0 57 56" fill="none" xmlns="http://www.w3.org/2000/svg">
<path fill-rule="evenodd" clip-rule="evenodd" d="M5.75 14C5.75 13.0335 6.5335 12.25 7.5 12.25H49.5C50.4665 12.25 51.25 13.0335 51.25 14C51.25 14.9665 50.4665 15.75 49.5 15.75H7.5C6.5335 15.75 5.75 14.9665 5.75 14ZM5.75 23.3333C5.75 22.3668 6.5335 21.5833 7.5 21.5833H49.5C50.4665 21.5833 51.25 22.3668 51.25 23.3333C51.25 24.2998 50.4665 25.0833 49.5 25.0833H7.5C6.5335 25.0833 5.75 24.2998 5.75 23.3333ZM48.243 30.1201C49.0051 30.7146 49.141 31.8142 48.5465 32.5763L39.4465 44.243C39.1218 44.6594 38.6263 44.9068 38.0984 44.9164C37.5704 44.9259 37.0663 44.6966 36.7267 44.2923L31.8267 38.4589C31.205 37.7189 31.301 36.615 32.0411 35.9934C32.7811 35.3717 33.885 35.4677 34.5066 36.2077L38.0163 40.3859L45.7868 30.4237C46.3812 29.6616 47.4809 29.5257 48.243 30.1201ZM5.75 32.6667C5.75 31.7002 6.5335 30.9167 7.5 30.9167H23.8333C24.7998 30.9167 25.5833 31.7002 25.5833 32.6667C25.5833 33.6332 24.7998 34.4167 23.8333 34.4167H7.5C6.5335 34.4167 5.75 33.6332 5.75 32.6667ZM5.75 42C5.75 41.0335 6.5335 40.25 7.5 40.25H23.8333C24.7998 40.25 25.5833 41.0335 25.5833 42C25.5833 42.9665 24.7998 43.75 23.8333 43.75H7.5C6.5335 43.75 5.75 42.9665 5.75 42Z" fill="#5270ED"/>
</svg>
