<svg width="154" height="150" viewBox="0 0 154 150" fill="none" xmlns="http://www.w3.org/2000/svg">
<path d="M115.532 39.0123C115.532 40.6412 114.212 41.9615 112.583 41.9615C96.3365 41.9615 82.3797 31.9773 76.5204 17.8237C70.6608 31.9776 56.704 41.9615 40.457 41.9615C38.8281 41.9615 37.5078 40.6412 37.5078 39.0123C37.5078 37.3834 38.8281 36.063 40.457 36.063C58.7159 36.063 73.5709 21.2081 73.5709 2.94922C73.5709 1.32031 74.8912 0 76.5201 0C78.149 0 79.4696 1.32031 79.4696 2.94922C79.4696 21.2081 94.3242 36.063 112.583 36.063C114.212 36.063 115.532 37.3834 115.532 39.0123Z" fill="#2B3B47"/>
<path d="M0 67.5262C0 47.3415 16.363 30.9785 36.5476 30.9785C56.7323 30.9785 73.0953 47.3415 73.0953 67.5262M153.54 67.5262C153.54 47.3415 137.177 30.9785 116.992 30.9785C96.8075 30.9785 80.4445 47.3415 80.4445 67.5262" fill="#FFB636"/>
<path d="M10.9468 67.5262C10.9468 47.3415 32.6754 30.9785 36.548 30.9785C40.4206 30.9785 24.9705 47.3415 24.9705 67.5262M105.415 67.5262C105.415 47.3415 120.865 30.9785 116.993 30.9785C113.12 30.9785 91.3913 47.3415 91.3913 67.5262" fill="#FFD469"/>
<path d="M36.5476 74.4213C16.363 74.4213 0 71.7387 0 68.43C0 65.1209 16.363 62.4387 36.5476 62.4387C56.7323 62.4387 73.0953 65.1212 73.0953 68.43C73.0953 71.7387 56.7323 74.4213 36.5476 74.4213ZM153.54 68.43C153.54 65.1209 137.177 62.4387 116.992 62.4387C96.8075 62.4387 80.4445 65.1212 80.4445 68.43C80.4445 71.739 96.8075 74.4213 116.992 74.4213C137.177 74.4213 153.54 71.7387 153.54 68.43Z" fill="#A06C33"/>
<path d="M83.0989 99.2594C83.0989 101.591 81.2084 103.482 78.8764 103.482C76.5444 103.482 74.6539 101.591 74.6539 99.2594C74.6539 96.9274 76.5444 95.0369 78.8764 95.0369C81.2084 95.0369 83.0989 96.9277 83.0989 99.2594ZM102.67 140.102C100.612 140.102 98.9439 141.77 98.9439 143.827C98.9439 145.885 100.612 147.553 102.67 147.553C104.727 147.553 106.396 145.885 106.396 143.827C106.396 141.77 104.727 140.102 102.67 140.102ZM20.8943 120.963C18.8365 120.963 17.1685 122.631 17.1685 124.689C17.1685 126.747 18.8365 128.415 20.8943 128.415C22.9521 128.415 24.6202 126.747 24.6202 124.689C24.6202 122.631 22.9521 120.963 20.8943 120.963Z" fill="#FFB636"/>
<path d="M45.3346 142.321C45.3346 145.015 43.1506 147.199 40.4566 147.199C37.7627 147.199 35.5786 145.015 35.5786 142.321C35.5786 139.627 37.7627 137.443 40.4566 137.443C43.1509 137.443 45.3346 139.627 45.3346 142.321ZM121.406 70.9454C119.625 69.1194 117.124 67.8892 114.365 67.4814C112.755 67.2427 111.251 68.3569 111.012 69.9704C110.774 71.5837 111.888 73.0845 113.501 73.3229C114.968 73.5396 116.308 74.1761 117.18 75.0687C117.57 75.469 118.204 76.2782 118.068 77.2022C117.931 78.1262 117.09 78.7172 116.6 78.9872C115.508 79.5902 114.041 79.8108 112.574 79.5944C106.581 78.7096 101.108 82.0145 100.375 86.9645C99.6436 91.9142 103.925 96.6623 109.92 97.5487C109.951 97.5532 109.982 97.552 110.013 97.5556C112.922 98.0209 114.705 99.9506 114.488 101.418C114.351 102.342 113.51 102.933 113.02 103.203C111.928 103.806 110.461 104.028 108.994 103.81C103.001 102.925 97.5277 106.23 96.7953 111.18C96.0636 116.13 100.345 120.878 106.34 121.764C106.486 121.786 106.632 121.796 106.775 121.796C108.215 121.796 109.475 120.742 109.692 119.275C109.931 117.663 108.816 116.162 107.203 115.923C104.239 115.485 102.417 113.527 102.637 112.044C102.856 110.561 105.165 109.211 108.131 109.652C108.791 109.749 109.451 109.798 110.104 109.798C112.177 109.798 114.174 109.311 115.873 108.373C118.333 107.015 119.958 104.795 120.329 102.281C121.061 97.3317 116.779 92.5836 110.785 91.6972C110.745 91.6915 110.706 91.69 110.667 91.6858C107.773 91.2135 106 89.2911 106.217 87.8282C106.436 86.3449 108.746 84.9962 111.71 85.4359C112.371 85.5336 113.031 85.5818 113.684 85.5818C115.757 85.5818 117.754 85.0948 119.453 84.1572C121.913 82.7995 123.537 80.5793 123.909 78.0656C124.28 75.5518 123.368 72.9567 121.406 70.9454Z" fill="#BEA4FF"/>
<path d="M86.5145 129.567C86.5145 132.261 84.3304 134.445 81.6365 134.445C78.9425 134.445 76.7585 132.261 76.7585 129.567C76.7585 126.874 78.9425 124.689 81.6365 124.689C84.3304 124.689 86.5145 126.873 86.5145 129.567ZM35.9582 80.0262C34.0622 78.1821 31.4418 76.9754 28.5794 76.6288C28.5393 76.624 28.4998 76.6237 28.46 76.6204C25.8821 76.2645 24.1357 74.6244 24.2888 73.3607C24.5136 71.5052 23.1915 69.8187 21.3362 69.5939C19.4825 69.3709 17.7942 70.6912 17.5694 72.5464C16.9284 77.8382 21.4061 82.5872 27.7639 83.3578C27.7994 83.3621 27.8341 83.3612 27.8694 83.3642C29.208 83.5465 30.4319 84.0932 31.2387 84.878C31.582 85.2119 32.1446 85.8833 32.0548 86.6262C31.965 87.3685 31.258 87.886 30.8448 88.1283C29.8485 88.7123 28.4863 88.9519 27.1063 88.7844C24.2432 88.4369 21.411 88.983 19.1296 90.321C16.5884 91.811 14.9462 94.1901 14.6241 96.8472C13.9827 102.139 18.4605 106.888 24.8183 107.659C24.9566 107.676 25.094 107.684 25.2299 107.684C26.917 107.684 28.3772 106.424 28.5851 104.707C28.8102 102.851 27.4881 101.165 25.6329 100.94C22.9892 100.62 21.1876 98.9448 21.3431 97.6619C21.4333 96.9193 22.14 96.4018 22.5535 96.1595C23.5495 95.5755 24.9123 95.3359 26.2917 95.5034C26.8543 95.5718 27.4155 95.6053 27.9718 95.6053C30.2463 95.6053 32.4354 95.042 34.2684 93.9667C36.8098 92.4768 38.4517 90.0977 38.7739 87.4405C39.0961 84.7827 38.0699 82.0803 35.9582 80.0262ZM136.35 149.131C137.913 148.106 138.349 146.008 137.324 144.445C125.982 127.15 134.678 114.96 139.873 107.676C140.505 106.79 141.101 105.953 141.588 105.203C142.605 103.635 142.159 101.539 140.59 100.522C139.022 99.505 136.927 99.9517 135.91 101.52C135.504 102.145 134.975 102.887 134.362 103.746C128.981 111.291 117.782 126.99 131.664 148.157C132.313 149.148 133.394 149.686 134.497 149.686C135.134 149.686 135.778 149.506 136.35 149.131Z" fill="#FF6E83"/>
<path d="M70.331 85.1894C70.331 87.0558 68.8181 88.5687 66.9517 88.5687C65.0853 88.5687 63.5724 87.0558 63.5724 85.1894C63.5724 83.323 65.0853 81.8101 66.9517 81.8101C68.8181 81.8101 70.331 83.323 70.331 85.1894ZM142.374 79.5034C140.562 79.5034 139.094 80.9723 139.094 82.7839C139.094 84.5954 140.562 86.0643 142.374 86.0643C144.186 86.0643 145.655 84.5954 145.655 82.7839C145.655 80.9723 144.186 79.5034 142.374 79.5034ZM48.2995 129.091C48.8091 128.539 49.4203 127.919 50.0676 127.263C53.3517 123.931 57.8496 119.369 59.7959 113.13C62.1339 105.635 60.1265 97.6701 53.8287 89.4556C52.7357 88.0295 50.6939 87.7607 49.2684 88.8532C47.8429 89.9463 47.5732 91.9877 48.6659 93.4135C53.6717 99.9427 55.2811 105.759 53.5858 111.193C52.1094 115.925 48.4086 119.679 45.4352 122.695C44.7499 123.391 44.1026 124.047 43.5209 124.677C42.3022 125.996 42.3839 128.054 43.7033 129.273C44.3289 129.851 45.12 130.136 45.9096 130.136C46.7851 130.137 47.6585 129.785 48.2995 129.091Z" fill="#59CAFC"/>
</svg>
