<svg width="248" height="248" viewBox="0 0 248 248" fill="none" xmlns="http://www.w3.org/2000/svg">
<g clip-path="url(#clip0_91_771)">
<path d="M45.725 104.625C45.725 88.35 53.8625 80.2126 70.1375 80.2126C53.8625 80.2126 45.725 72.075 45.725 55.8C45.725 72.075 37.5875 80.2126 21.3125 80.2126C37.5875 80.2126 45.725 88.35 45.725 104.625ZM51.925 163.138C51.925 179.413 43.7875 187.55 27.5125 187.55C43.7875 187.55 51.925 195.688 51.925 211.963C51.925 195.688 60.0625 187.55 75.95 187.55C60.0625 187.55 51.925 179.413 51.925 163.138Z" fill="#5270ED"/>
<path d="M135.625 134.462C96.0998 134.462 76.3373 114.7 76.3373 75.1749C76.3373 114.7 56.5748 134.462 17.0498 134.462C54.6373 134.462 74.0123 152.287 76.3373 187.55C76.3373 189.487 76.3373 191.425 76.3373 193.75C76.3373 154.225 96.0998 134.462 135.625 134.462ZM94.5498 53.4749C94.5498 37.1999 102.687 29.0624 118.962 29.0624C102.687 29.0624 94.5498 20.9249 94.5498 4.6499C94.5498 20.9249 86.4123 29.0624 70.1373 29.0624C86.4123 29.0624 94.5498 37.1999 94.5498 53.4749Z" fill="#FFB636"/>
<path d="M118.187 179.025C118.187 201.887 106.562 213.512 83.6999 213.512C106.562 213.512 118.187 225.137 118.187 248C118.187 225.137 129.812 213.512 152.675 213.512C129.425 213.512 118.187 201.887 118.187 179.025ZM141.437 134.462C141.437 91.0625 163.137 69.3624 206.537 69.3624C163.137 69.3624 141.437 47.6624 141.437 4.26245C141.437 47.6624 119.737 69.3624 76.3374 69.3624C119.737 69.3624 141.437 91.0625 141.437 134.462Z" fill="#021863"/>
<path d="M182.9 110.825C182.9 142.987 167.013 158.875 134.85 158.875C167.013 158.875 182.9 174.762 182.9 206.925C182.9 175.15 198.788 158.875 230.95 158.875C198.788 158.875 182.9 142.987 182.9 110.825Z" fill="#5270ED"/>
<path d="M206.15 48.825C206.15 32.55 214.287 24.4125 230.562 24.4125C214.287 24.4125 206.15 16.275 206.15 0C206.15 16.275 198.012 24.4125 181.737 24.4125C198.012 24.4125 206.15 32.55 206.15 48.825Z" fill="#FFB636"/>
</g>
<defs>
<clipPath id="clip0_91_771">
<rect width="248" height="248" fill="white"/>
</clipPath>
</defs>
</svg>
