<svg width="46" height="52" viewBox="0 0 46 52" fill="none" xmlns="http://www.w3.org/2000/svg">
<path fill-rule="evenodd" clip-rule="evenodd" d="M11.5638 0.916599C11.6759 0.916648 11.7897 0.916698 11.9052 0.916698H34.0951C34.2106 0.916698 34.3244 0.916648 34.4365 0.916599C36.8089 0.91556 38.4416 0.914845 39.8167 1.39331C42.4136 2.29692 44.4299 4.38678 45.2943 7.01954L43.6316 7.56544L45.2943 7.01954C45.7517 8.41282 45.7511 10.0691 45.7502 12.5284C45.7502 12.6385 45.7502 12.7502 45.7502 12.8635V45.5398C45.7502 48.9587 41.7205 50.9941 39.0665 48.5655C38.8811 48.3958 38.6192 48.3958 38.4338 48.5655L37.3066 49.597C35.1408 51.5788 31.8595 51.5788 29.6938 49.597C28.8655 48.839 27.6349 48.839 26.8066 49.597C24.6408 51.5788 21.3595 51.5788 19.1938 49.597C18.3655 48.839 17.1349 48.839 16.3066 49.597C14.1408 51.5788 10.8595 51.5788 8.69376 49.597L7.56653 48.5655C7.38109 48.3958 7.11923 48.3958 6.93378 48.5655C4.27978 50.9941 0.250157 48.9587 0.250157 45.5398V12.8635C0.250157 12.7502 0.250117 12.6385 0.250077 12.5285C0.249186 10.0691 0.248586 8.41282 0.706041 7.01954C1.57045 4.38678 3.58671 2.29692 6.18363 1.39331C7.5587 0.914845 9.19141 0.91556 11.5638 0.916599ZM11.9052 4.4167C9.05601 4.4167 8.0746 4.44116 7.33383 4.69892C5.79529 5.23426 4.56477 6.48683 4.03139 8.11135C3.7722 8.90077 3.75016 9.94175 3.75016 12.8635V45.5398C3.75016 45.8176 3.88997 45.9874 4.0654 46.0685C4.15678 46.1108 4.24615 46.1217 4.32063 46.1118C4.38629 46.103 4.47125 46.0747 4.57098 45.9834C6.0939 44.5898 8.40642 44.5898 9.92933 45.9834L11.0566 47.0149C11.8849 47.7729 13.1155 47.7729 13.9438 47.0149C16.1095 45.0331 19.3908 45.0331 21.5566 47.0149C22.3849 47.7729 23.6155 47.7729 24.4438 47.0149C26.6095 45.0331 29.8908 45.0331 32.0566 47.0149C32.8849 47.7729 34.1155 47.7729 34.9438 47.0149L36.071 45.9834C37.5939 44.5898 39.9064 44.5898 41.4293 45.9834C41.5291 46.0747 41.614 46.103 41.6797 46.1118C41.7542 46.1217 41.8435 46.1108 41.9349 46.0685C42.1103 45.9874 42.2502 45.8177 42.2502 45.5398V12.8635C42.2502 9.94176 42.2281 8.90077 41.9689 8.11135C41.4355 6.48683 40.205 5.23426 38.6665 4.69892C37.9257 4.44116 36.9443 4.4167 34.0951 4.4167H11.9052ZM9.58349 15.5C9.58349 14.5335 10.367 13.75 11.3335 13.75H12.5002C13.4667 13.75 14.2502 14.5335 14.2502 15.5C14.2502 16.4665 13.4667 17.25 12.5002 17.25H11.3335C10.367 17.25 9.58349 16.4665 9.58349 15.5ZM17.7502 15.5C17.7502 14.5335 18.5337 13.75 19.5002 13.75H34.6668C35.6333 13.75 36.4168 14.5335 36.4168 15.5C36.4168 16.4665 35.6333 17.25 34.6668 17.25H19.5002C18.5337 17.25 17.7502 16.4665 17.7502 15.5ZM9.58349 23.6667C9.58349 22.7002 10.367 21.9167 11.3335 21.9167H12.5002C13.4667 21.9167 14.2502 22.7002 14.2502 23.6667C14.2502 24.6332 13.4667 25.4167 12.5002 25.4167H11.3335C10.367 25.4167 9.58349 24.6332 9.58349 23.6667ZM17.7502 23.6667C17.7502 22.7002 18.5337 21.9167 19.5002 21.9167H34.6668C35.6333 21.9167 36.4168 22.7002 36.4168 23.6667C36.4168 24.6332 35.6333 25.4167 34.6668 25.4167H19.5002C18.5337 25.4167 17.7502 24.6332 17.7502 23.6667ZM9.58349 31.8334C9.58349 30.8669 10.367 30.0834 11.3335 30.0834H12.5002C13.4667 30.0834 14.2502 30.8669 14.2502 31.8334C14.2502 32.7999 13.4667 33.5834 12.5002 33.5834H11.3335C10.367 33.5834 9.58349 32.7999 9.58349 31.8334ZM17.7502 31.8334C17.7502 30.8669 18.5337 30.0834 19.5002 30.0834H34.6668C35.6333 30.0834 36.4168 30.8669 36.4168 31.8334C36.4168 32.7999 35.6333 33.5834 34.6668 33.5834H19.5002C18.5337 33.5834 17.7502 32.7999 17.7502 31.8334Z" fill="#5270ED"/>
</svg>
