<svg width="240" height="190" viewBox="0 0 240 190" fill="none" xmlns="http://www.w3.org/2000/svg">
<path d="M120.841 144.58C156.246 144.58 184.946 115.879 184.946 80.4751C184.946 45.0709 156.246 16.3701 120.841 16.3701C85.4372 16.3701 56.7365 45.0709 56.7365 80.4751C56.7365 115.879 85.4372 144.58 120.841 144.58Z" fill="#DBE8EC"/>
<path d="M208.313 90.75V83.3042C208.313 81.8843 207.749 80.5226 206.745 79.5186C205.741 78.5146 204.379 77.9506 202.959 77.9506H184.063C182.643 77.9506 181.281 77.3866 180.277 76.3826C179.273 75.3786 178.709 74.0169 178.709 72.597V65.1512C178.709 63.7313 179.273 62.3696 180.277 61.3656C181.281 60.3616 182.643 59.7976 184.063 59.7976H184.659C185.363 59.7976 186.059 59.6591 186.708 59.3901C187.358 59.121 187.948 58.7267 188.445 58.2296C188.942 57.7325 189.336 57.1423 189.606 56.4928C189.875 55.8432 190.013 55.1471 190.013 54.444V46.9982C190.013 46.2951 189.875 45.599 189.606 44.9494C189.336 44.2999 188.942 43.7097 188.445 43.2126C187.948 42.7155 187.358 42.3211 186.708 42.0521C186.059 41.7831 185.363 41.6446 184.659 41.6446L60.3686 41.6445C58.9488 41.6445 57.5871 42.2086 56.5831 43.2126C55.5791 44.2165 55.015 45.5782 55.015 46.9981V54.444C55.015 55.147 55.1535 55.8432 55.4226 56.4927C55.6916 57.1422 56.0859 57.7324 56.5831 58.2295C57.0802 58.7266 57.6704 59.121 58.3199 59.39C58.9694 59.6591 59.6656 59.7975 60.3686 59.7975C61.7885 59.7975 63.1502 60.3616 64.1542 61.3656C65.1582 62.3696 65.7222 63.7313 65.7222 65.1511V72.597C65.7222 73.3 65.5837 73.9962 65.3147 74.6457C65.0457 75.2952 64.6513 75.8854 64.1542 76.3825C63.6571 76.8797 63.0669 77.274 62.4174 77.543C61.7678 77.8121 61.0717 77.9506 60.3686 77.9506H39.6659C38.246 77.9506 36.8843 78.5146 35.8803 79.5186C34.8763 80.5226 34.3123 81.8843 34.3123 83.3041V90.75C34.3123 92.1698 34.8763 93.5315 35.8803 94.5355C36.8843 95.5395 38.246 96.1036 39.6659 96.1036H47.7893C49.2092 96.1036 50.5709 96.6676 51.5749 97.6716C52.5788 98.6756 53.1429 100.037 53.1429 101.457V108.903C53.1429 110.323 52.5788 111.685 51.5749 112.689C50.5709 113.693 49.2092 114.257 47.7893 114.257H47.7697C47.0666 114.257 46.3705 114.395 45.7209 114.664C45.0714 114.933 44.4812 115.328 43.9841 115.825C43.487 116.322 43.0927 116.912 42.8236 117.561C42.5546 118.211 42.4161 118.907 42.4161 119.61V127.056C42.4161 128.476 42.9801 129.838 43.9841 130.842C44.9881 131.846 46.3498 132.41 47.7697 132.41H48.945C50.3648 132.41 51.7265 132.974 52.7305 133.978C53.7345 134.982 54.2985 136.343 54.2985 137.763V145.209C54.2985 145.912 54.1601 146.608 53.891 147.258C53.622 147.907 53.2276 148.498 52.7305 148.995C52.2334 149.492 51.6432 149.886 50.9937 150.155C50.3442 150.424 49.648 150.563 48.945 150.563H37.041C36.3379 150.563 35.6418 150.701 34.9922 150.97C34.3427 151.239 33.7525 151.634 33.2554 152.131C32.7583 152.628 32.3639 153.218 32.0949 153.868C31.8258 154.517 31.6874 155.213 31.6874 155.916V163.362C31.6874 164.782 32.2514 166.144 33.2554 167.148C34.2594 168.152 35.6211 168.716 37.041 168.716L187.534 168.716C188.237 168.716 188.933 168.577 189.582 168.308C190.232 168.039 190.822 167.645 191.319 167.148C191.816 166.651 192.211 166.06 192.48 165.411C192.749 164.761 192.887 164.065 192.887 163.362V155.916C192.887 155.213 192.749 154.517 192.48 153.868C192.211 153.218 191.816 152.628 191.319 152.131C190.822 151.634 190.232 151.239 189.582 150.97C188.933 150.701 188.237 150.563 187.534 150.563H182.892C182.189 150.563 181.493 150.424 180.843 150.155C180.194 149.886 179.603 149.492 179.106 148.995C178.609 148.498 178.215 147.907 177.946 147.258C177.677 146.608 177.538 145.912 177.538 145.209V137.763C177.538 137.06 177.677 136.364 177.946 135.714C178.215 135.065 178.609 134.475 179.106 133.978C179.603 133.481 180.194 133.086 180.843 132.817C181.493 132.548 182.189 132.41 182.892 132.41H193.837C195.257 132.41 196.618 131.846 197.622 130.842C198.626 129.838 199.19 128.476 199.19 127.056V119.61C199.19 118.19 198.626 116.829 197.622 115.825C196.618 114.821 195.257 114.257 193.837 114.257H190.517C189.097 114.257 187.735 113.693 186.731 112.689C185.727 111.685 185.163 110.323 185.163 108.903V101.457C185.163 100.037 185.727 98.6756 186.731 97.6717C187.735 96.6677 189.097 96.1036 190.517 96.1036H202.959C203.662 96.1036 204.358 95.9652 205.008 95.6961C205.657 95.4271 206.248 95.0327 206.745 94.5356C207.242 94.0385 207.636 93.4483 207.905 92.7988C208.174 92.1493 208.313 91.4531 208.313 90.75Z" fill="#DBE8EC"/>
<path d="M97.3992 96.3936H108.594" stroke="#FFB636" stroke-width="3" stroke-miterlimit="10"/>
<path d="M97.3992 99.6201H108.594" stroke="#FFB636" stroke-width="3" stroke-miterlimit="10"/>
<path d="M97.3992 102.847H108.594" stroke="#FFB636" stroke-width="3" stroke-miterlimit="10"/>
<path d="M76.5137 40.6865H87.709" stroke="#B9D4DB" stroke-width="3" stroke-miterlimit="10" stroke-linecap="round"/>
<path d="M76.5137 43.9131H87.709" stroke="#B9D4DB" stroke-width="3" stroke-miterlimit="10" stroke-linecap="round"/>
<path d="M76.5137 47.1406H87.709" stroke="#B9D4DB" stroke-width="3" stroke-miterlimit="10" stroke-linecap="round"/>
<path d="M177.321 92.4453H188.516" stroke="#B9D4DB" stroke-width="3" stroke-miterlimit="10" stroke-linecap="round"/>
<path d="M177.321 95.6729H188.516" stroke="#B9D4DB" stroke-width="3" stroke-miterlimit="10" stroke-linecap="round"/>
<path d="M177.321 98.8994H188.516" stroke="#B9D4DB" stroke-width="3" stroke-miterlimit="10" stroke-linecap="round"/>
<path d="M61.0255 141.353H72.2208" stroke="#B9D4DB" stroke-width="3" stroke-miterlimit="10" stroke-linecap="round"/>
<path d="M61.0255 144.58H72.2208" stroke="#B9D4DB" stroke-width="3" stroke-miterlimit="10" stroke-linecap="round"/>
<path d="M61.0255 147.807H72.2208" stroke="#B9D4DB" stroke-width="3" stroke-miterlimit="10" stroke-linecap="round"/>
<path d="M62.6911 97.1135C65.8355 97.1135 68.3845 94.5645 68.3845 91.4201C68.3845 88.2756 65.8355 85.7266 62.6911 85.7266C59.5466 85.7266 56.9976 88.2756 56.9976 91.4201C56.9976 94.5645 59.5466 97.1135 62.6911 97.1135Z" fill="#B9D4DB"/>
<path d="M64.1169 82.8629C65.7548 82.8629 67.0825 81.5352 67.0825 79.8973C67.0825 78.2594 65.7548 76.9316 64.1169 76.9316C62.479 76.9316 61.1512 78.2594 61.1512 79.8973C61.1512 81.5352 62.479 82.8629 64.1169 82.8629Z" fill="#B9D4DB"/>
<path d="M74.5548 81.9233C75.4996 81.9233 76.2654 81.1574 76.2654 80.2126C76.2654 79.2678 75.4996 78.502 74.5548 78.502C73.61 78.502 72.8441 79.2678 72.8441 80.2126C72.8441 81.1574 73.61 81.9233 74.5548 81.9233Z" fill="#B9D4DB"/>
<path d="M75.5701 93.8062C77.8349 93.8062 79.671 91.9702 79.671 89.7053C79.671 87.4405 77.8349 85.6045 75.5701 85.6045C73.3053 85.6045 71.4692 87.4405 71.4692 89.7053C71.4692 91.9702 73.3053 93.8062 75.5701 93.8062Z" fill="#B9D4DB"/>
<path d="M171.918 160.274C175.062 160.274 177.611 157.725 177.611 154.58C177.611 151.436 175.062 148.887 171.918 148.887C168.773 148.887 166.224 151.436 166.224 154.58C166.224 157.725 168.773 160.274 171.918 160.274Z" fill="#B9D4DB"/>
<path d="M163.956 149.095C165.594 149.095 166.922 147.768 166.922 146.13C166.922 144.492 165.594 143.164 163.956 143.164C162.318 143.164 160.99 144.492 160.99 146.13C160.99 147.768 162.318 149.095 163.956 149.095Z" fill="#B9D4DB"/>
<path d="M170.86 140.005C171.804 140.005 172.57 139.239 172.57 138.295C172.57 137.35 171.804 136.584 170.86 136.584C169.915 136.584 169.149 137.35 169.149 138.295C169.149 139.239 169.915 140.005 170.86 140.005Z" fill="#B9D4DB"/>
<path d="M178.816 147.671C181.081 147.671 182.917 145.835 182.917 143.571C182.917 141.306 181.081 139.47 178.816 139.47C176.551 139.47 174.715 141.306 174.715 143.571C174.715 145.835 176.551 147.671 178.816 147.671Z" fill="#B9D4DB"/>
<path d="M166.223 64.0501C169.367 64.0501 171.916 61.501 171.916 58.3566C171.916 55.2121 169.367 52.6631 166.223 52.6631C163.078 52.6631 160.529 55.2121 160.529 58.3566C160.529 61.501 163.078 64.0501 166.223 64.0501Z" fill="#B9D4DB"/>
<path d="M155.958 52.8708C157.596 52.8708 158.924 51.543 158.924 49.9051C158.924 48.2672 157.596 46.9395 155.958 46.9395C154.32 46.9395 152.992 48.2672 152.992 49.9051C152.992 51.543 154.32 52.8708 155.958 52.8708Z" fill="#B9D4DB"/>
<path d="M167.169 51.0396C169.433 51.0396 171.269 49.2036 171.269 46.9388C171.269 44.6739 169.433 42.8379 167.169 42.8379C164.904 42.8379 163.068 44.6739 163.068 46.9388C163.068 49.2036 164.904 51.0396 167.169 51.0396Z" fill="#B9D4DB"/>
<path d="M102.344 136.04C105.488 136.04 108.037 133.491 108.037 130.347C108.037 127.202 105.488 124.653 102.344 124.653C99.1992 124.653 96.6501 127.202 96.6501 130.347C96.6501 133.491 99.1992 136.04 102.344 136.04Z" fill="#FFB636"/>
<path d="M94.3818 124.862C96.0197 124.862 97.3474 123.534 97.3474 121.896C97.3474 120.258 96.0197 118.931 94.3818 118.931C92.7439 118.931 91.4161 120.258 91.4161 121.896C91.4161 123.534 92.7439 124.862 94.3818 124.862Z" fill="#FFB636"/>
<path d="M101.286 115.772C102.23 115.772 102.996 115.006 102.996 114.061C102.996 113.116 102.23 112.351 101.286 112.351C100.341 112.351 99.575 113.116 99.575 114.061C99.575 115.006 100.341 115.772 101.286 115.772Z" fill="#FFB636"/>
<path d="M109.242 123.438C111.507 123.438 113.343 121.602 113.343 119.337C113.343 117.072 111.507 115.236 109.242 115.236C106.977 115.236 105.141 117.072 105.141 119.337C105.141 121.602 106.977 123.438 109.242 123.438Z" fill="#FFB636"/>
<path d="M116.388 56.8171C128.029 40.4131 135.256 25.5466 132.53 23.6119L129.406 21.3953C126.68 19.4605 115.033 31.1903 103.392 47.5943C91.7505 63.9983 84.5236 78.8647 87.25 80.7994L90.3736 83.0161C93.0999 84.9508 104.747 73.2211 116.388 56.8171Z" fill="#E06714"/>
<path d="M113.264 54.6C124.905 38.1959 132.132 23.3295 129.406 21.3947C126.68 19.46 115.033 31.1897 103.392 47.5938C91.7505 63.9978 84.5237 78.8643 87.25 80.799C89.9763 82.7337 101.623 71.004 113.264 54.6Z" fill="#FFB636"/>
<path d="M110.666 42.3559C113.904 44.6542 104.365 58.0965 101.126 55.7983C97.8876 53.5001 97.3977 48.6278 100.032 44.9158C102.666 41.2038 107.427 40.0577 110.666 42.3559Z" fill="#E06714"/>
<path d="M87.709 93.2686L96.2585 168.06H96.3512C96.3512 170.61 108.788 172.677 124.13 172.677C139.472 172.677 151.909 170.61 151.909 168.06H152.002L160.551 93.2686H87.709Z" fill="#FFB636"/>
<path d="M124.13 99.321C144.245 99.321 160.551 96.611 160.551 93.2679C160.551 89.9249 144.245 87.2148 124.13 87.2148C104.015 87.2148 87.7089 89.9249 87.7089 93.2679C87.7089 96.611 104.015 99.321 124.13 99.321Z" fill="#E06714"/>
<path d="M125.979 110.066H124.344C123.936 110.066 123.605 110.397 123.605 110.805V163.656C123.605 164.063 123.936 164.394 124.344 164.394H125.979C126.387 164.394 126.717 164.063 126.717 163.656V110.805C126.717 110.397 126.387 110.066 125.979 110.066Z" fill="#E06714"/>
<path d="M141.756 164.466L139.788 164.194C139.474 164.151 139.237 163.602 139.259 162.969L141.025 111.062C141.046 110.429 141.318 109.951 141.632 109.994L143.6 110.266C143.914 110.309 144.151 110.858 144.129 111.491L142.363 163.398C142.342 164.032 142.07 164.51 141.756 164.466Z" fill="#E06714"/>
<path d="M107.434 164.466L109.401 164.194C109.716 164.151 109.953 163.602 109.931 162.969L108.165 111.062C108.144 110.429 107.871 109.951 107.557 109.994L105.59 110.266C105.276 110.309 105.039 110.858 105.06 111.491L106.826 163.398C106.848 164.032 107.12 164.51 107.434 164.466Z" fill="#E06714"/>
<path d="M140.122 83.6935L137.56 92.3813L115.41 85.8481C115.292 85.8133 115.182 85.7557 115.086 85.6785C114.991 85.6012 114.911 85.5059 114.853 85.398C114.794 85.2901 114.757 85.1717 114.744 85.0495C114.731 84.9273 114.742 84.8037 114.777 84.6859L125.143 49.5401C125.178 49.4223 125.236 49.3124 125.313 49.2168C125.39 49.1212 125.485 49.0418 125.593 48.983C125.701 48.9243 125.82 48.8874 125.942 48.8744C126.064 48.8614 126.188 48.8726 126.305 48.9074L156.282 57.7488C156.399 57.7836 156.509 57.8412 156.605 57.9185C156.701 57.9957 156.78 58.091 156.839 58.1989C156.897 58.3068 156.934 58.4253 156.947 58.5474C156.96 58.6696 156.949 58.7932 156.914 58.9111L148.846 86.2666L140.122 83.6935Z" fill="#021863"/>
<path d="M137.56 92.381L140.122 83.6934L148.846 86.2662L137.56 92.381Z" fill="#3086A3"/>
<path d="M139.317 60.0275L128.278 56.7715L126.792 61.8109L137.831 65.0669L139.317 60.0275Z" fill="#3086A3"/>
<path d="M141.321 63.3574L149.775 65.851" stroke="#3086A3" stroke-width="3" stroke-miterlimit="10"/>
<path d="M121.912 78.752L130.367 81.2456" stroke="#3086A3" stroke-width="3" stroke-miterlimit="10"/>
<path d="M125.632 65.7422L147.872 72.3018" stroke="#3086A3" stroke-width="3" stroke-miterlimit="10"/>
<path d="M124.357 70.0684L146.596 76.628" stroke="#3086A3" stroke-width="3" stroke-miterlimit="10"/>
<path d="M123.081 74.3945L145.32 80.9542" stroke="#3086A3" stroke-width="3" stroke-miterlimit="10"/>
</svg>
