<svg width="480" height="24" viewBox="0 0 480 24" fill="none" xmlns="http://www.w3.org/2000/svg">
<rect y="12" width="480" height="2" fill="#666666" fill-opacity="0.25"/>
<rect width="38" height="24" transform="translate(221.5)" fill="white"/>
<path d="M236.652 18.112C235.777 18.112 234.999 17.9253 234.316 17.552C233.633 17.168 233.095 16.6453 232.7 15.984C232.305 15.3227 232.108 14.5707 232.108 13.728C232.108 12.8747 232.305 12.1227 232.7 11.472C233.095 10.8107 233.633 10.2933 234.316 9.92C234.999 9.54667 235.777 9.36 236.652 9.36C237.537 9.36 238.321 9.54667 239.004 9.92C239.697 10.2933 240.236 10.8053 240.62 11.456C241.015 12.1067 241.212 12.864 241.212 13.728C241.212 14.5707 241.015 15.3227 240.62 15.984C240.236 16.6453 239.697 17.168 239.004 17.552C238.321 17.9253 237.537 18.112 236.652 18.112ZM236.652 16.4C237.143 16.4 237.58 16.2933 237.964 16.08C238.348 15.8667 238.647 15.5573 238.86 15.152C239.084 14.7467 239.196 14.272 239.196 13.728C239.196 13.1733 239.084 12.6987 238.86 12.304C238.647 11.8987 238.348 11.5893 237.964 11.376C237.58 11.1627 237.148 11.056 236.668 11.056C236.177 11.056 235.74 11.1627 235.356 11.376C234.983 11.5893 234.684 11.8987 234.46 12.304C234.236 12.6987 234.124 13.1733 234.124 13.728C234.124 14.272 234.236 14.7467 234.46 15.152C234.684 15.5573 234.983 15.8667 235.356 16.08C235.74 16.2933 236.172 16.4 236.652 16.4ZM243.125 18V9.456H245.029V11.808L244.805 11.12C245.061 10.544 245.461 10.1067 246.005 9.808C246.559 9.50933 247.247 9.36 248.069 9.36V11.264C247.983 11.2427 247.903 11.232 247.829 11.232C247.754 11.2213 247.679 11.216 247.605 11.216C246.847 11.216 246.245 11.44 245.797 11.888C245.349 12.3253 245.125 12.9813 245.125 13.856V18H243.125Z" fill="#666666" fill-opacity="0.5"/>
</svg>
