<svg width="196" height="196" viewBox="0 0 196 196" fill="none" xmlns="http://www.w3.org/2000/svg">
<g opacity="0.4">
<rect x="0.5" width="161" height="161" rx="80.5" fill="#5270ED"/>
</g>
<g clip-path="url(#clip0_55_4154)">
<path d="M168.129 38H31.871C24.4816 38.0082 17.3973 40.9504 12.1723 46.181C6.94723 51.4117 4.0082 58.5036 4 65.9008V150.099C4 165.482 16.5048 178 31.871 178H168.129C183.495 178 196 165.482 196 150.099V65.9008C196 50.5182 183.495 38 168.129 38ZM159.892 56.6005L151.345 63.3587L105.76 99.3817C102.354 102.048 97.6464 102.048 94.24 99.3817L50.2658 64.5988L40.127 56.6005H159.892ZM168.129 159.399H31.871C26.7489 159.399 22.5806 155.227 22.5806 150.099V66.4898L82.72 114.014C87.7987 118.044 93.9303 120.028 100 120.028C106.07 120.028 112.201 118.044 117.28 114.014L177.419 66.5084V150.099C177.419 155.227 173.251 159.399 168.129 159.399Z" fill="#021863"/>
</g>
<defs>
<clipPath id="clip0_55_4154">
<rect width="195" height="195" fill="white" transform="translate(0.5 1)"/>
</clipPath>
</defs>
</svg>
