<svg width="562" height="442" viewBox="0 0 562 442" fill="none" xmlns="http://www.w3.org/2000/svg">
<path d="M292.213 365.768C372.289 365.768 437.204 300.953 437.204 221C437.204 141.047 372.289 76.2324 292.213 76.2324C212.136 76.2324 147.221 141.047 147.221 221C147.221 300.953 212.136 365.768 292.213 365.768Z" fill="#DBE8EC"/>
<path d="M488.148 190.701V175.068C488.148 172.086 486.961 169.227 484.85 167.119C482.739 165.011 479.875 163.827 476.89 163.827H437.152C434.167 163.827 431.303 162.643 429.192 160.535C427.081 158.427 425.894 155.567 425.894 152.586V136.952C425.894 133.971 427.081 131.112 429.192 129.004C431.303 126.896 434.167 125.712 437.152 125.712H438.407C441.393 125.712 444.257 124.527 446.368 122.419C448.479 120.311 449.665 117.452 449.665 114.471V98.8373C449.665 95.8561 448.479 92.997 446.368 90.889C444.257 88.781 441.393 87.5967 438.407 87.5967H149.695C146.71 87.5967 143.846 88.781 141.735 90.889C139.624 92.997 138.437 95.8561 138.437 98.8373V114.471C138.437 117.452 139.624 120.311 141.735 122.419C143.846 124.527 146.71 125.712 149.695 125.712C152.681 125.712 155.545 126.896 157.656 129.004C159.767 131.112 160.953 133.971 160.953 136.952V152.586C160.953 155.567 159.767 158.427 157.656 160.535C155.545 162.643 152.681 163.827 149.695 163.827H106.16C103.174 163.827 100.31 165.011 98.199 167.119C96.0877 169.227 94.9016 172.086 94.9016 175.068V190.701C94.9016 193.683 96.0877 196.542 98.199 198.65C100.31 200.758 103.174 201.942 106.16 201.942H123.242C124.721 201.942 126.185 202.233 127.551 202.798C128.917 203.363 130.158 204.19 131.203 205.234C132.248 206.278 133.078 207.517 133.644 208.881C134.209 210.245 134.5 211.706 134.5 213.183V228.816C134.5 231.798 133.314 234.657 131.203 236.765C129.092 238.873 126.228 240.057 123.242 240.057H123.201C120.215 240.057 117.352 241.241 115.241 243.349C113.129 245.457 111.943 248.317 111.943 251.298V266.931C111.943 269.913 113.129 272.772 115.241 274.88C117.352 276.988 120.215 278.172 123.201 278.172H125.673C127.151 278.172 128.615 278.463 129.981 279.028C131.347 279.593 132.588 280.421 133.633 281.464C134.679 282.508 135.508 283.747 136.074 285.111C136.64 286.475 136.931 287.937 136.931 289.413V305.047C136.931 308.028 135.745 310.887 133.633 312.995C131.522 315.103 128.658 316.287 125.673 316.287H85.1106C82.1248 316.287 79.2612 317.472 77.1499 319.58C75.0386 321.688 73.8525 324.547 73.8525 327.528V343.162C73.8526 346.143 75.0387 349.002 77.15 351.11C79.2612 353.218 82.1248 354.402 85.1106 354.402H444.451C447.437 354.402 450.301 353.218 452.412 351.11C454.523 349.002 455.709 346.143 455.709 343.162V327.528C455.709 324.547 454.523 321.688 452.412 319.58C450.301 317.472 447.437 316.287 444.451 316.287H434.69C431.704 316.287 428.841 315.103 426.729 312.995C424.618 310.887 423.432 308.028 423.432 305.047V289.413C423.432 286.432 424.618 283.573 426.729 281.464C428.841 279.356 431.704 278.172 434.69 278.172H457.706C460.692 278.172 463.555 276.988 465.667 274.88C467.778 272.772 468.964 269.913 468.964 266.932V251.298C468.964 248.317 467.778 245.457 465.667 243.349C463.555 241.241 460.692 240.057 457.706 240.057H450.724C447.738 240.057 444.875 238.873 442.763 236.765C440.652 234.657 439.466 231.798 439.466 228.816V213.183C439.466 210.201 440.652 207.342 442.763 205.234C444.875 203.126 447.738 201.942 450.724 201.942H476.89C479.875 201.942 482.739 200.758 484.85 198.65C486.961 196.542 488.148 193.682 488.148 190.701Z" fill="#DBE8EC"/>
<path d="M332.682 79.5596H360.612" stroke="#B9D4DB" stroke-width="3" stroke-miterlimit="10" stroke-linecap="round"/>
<path d="M332.682 87.5967H360.612" stroke="#B9D4DB" stroke-width="3" stroke-miterlimit="10" stroke-linecap="round"/>
<path d="M332.682 95.6348H360.612" stroke="#B9D4DB" stroke-width="3" stroke-miterlimit="10" stroke-linecap="round"/>
<path d="M103.022 250.271H130.951" stroke="#B9D4DB" stroke-width="3" stroke-miterlimit="10" stroke-linecap="round"/>
<path d="M103.022 258.31H130.951" stroke="#B9D4DB" stroke-width="3" stroke-miterlimit="10" stroke-linecap="round"/>
<path d="M103.022 266.348H130.951" stroke="#B9D4DB" stroke-width="3" stroke-miterlimit="10" stroke-linecap="round"/>
<path d="M437.204 323.934H465.134" stroke="#B9D4DB" stroke-width="3" stroke-miterlimit="10" stroke-linecap="round"/>
<path d="M437.204 331.972H465.134" stroke="#B9D4DB" stroke-width="3" stroke-miterlimit="10" stroke-linecap="round"/>
<path d="M437.204 340.009H465.134" stroke="#B9D4DB" stroke-width="3" stroke-miterlimit="10" stroke-linecap="round"/>
<path d="M472.754 186.602C479.348 186.602 484.692 181.265 484.692 174.682C484.692 168.099 479.348 162.763 472.754 162.763C466.161 162.763 460.816 168.099 460.816 174.682C460.816 181.265 466.161 186.602 472.754 186.602Z" fill="#B9D4DB"/>
<path d="M441.251 189.466C444.67 189.466 447.441 186.698 447.441 183.285C447.441 179.872 444.67 177.104 441.251 177.104C437.832 177.104 435.061 179.872 435.061 183.285C435.061 186.698 437.832 189.466 441.251 189.466Z" fill="#B9D4DB"/>
<path d="M456.969 154.346C461.853 154.346 465.812 150.393 465.812 145.517C465.812 140.641 461.853 136.688 456.969 136.688C452.085 136.688 448.126 140.641 448.126 145.517C448.126 150.393 452.085 154.346 456.969 154.346Z" fill="#B9D4DB"/>
<path d="M142.126 350.345C149.97 350.345 156.33 343.996 156.33 336.163C156.33 328.331 149.97 321.981 142.126 321.981C134.281 321.981 127.922 328.331 127.922 336.163C127.922 343.996 134.281 350.345 142.126 350.345Z" fill="#B9D4DB"/>
<path d="M114.04 350.626C118.126 350.626 121.438 347.319 121.438 343.239C121.438 339.159 118.126 335.852 114.04 335.852C109.954 335.852 106.641 339.159 106.641 343.239C106.641 347.319 109.954 350.626 114.04 350.626Z" fill="#B9D4DB"/>
<path d="M105.351 322.977C107.708 322.977 109.619 321.07 109.619 318.716C109.619 316.363 107.708 314.455 105.351 314.455C102.994 314.455 101.083 316.363 101.083 318.716C101.083 321.07 102.994 322.977 105.351 322.977Z" fill="#B9D4DB"/>
<path d="M126.511 318.018C132.162 318.018 136.742 313.444 136.742 307.803C136.742 302.161 132.162 297.588 126.511 297.588C120.861 297.588 116.281 302.161 116.281 307.803C116.281 313.444 120.861 318.018 126.511 318.018Z" fill="#B9D4DB"/>
<path d="M216.525 131.125C224.37 131.125 230.729 124.775 230.729 116.943C230.729 109.11 224.37 102.761 216.525 102.761C208.681 102.761 202.321 109.11 202.321 116.943C202.321 124.775 208.681 131.125 216.525 131.125Z" fill="#B9D4DB"/>
<path d="M217.102 95.4139C221.188 95.4139 224.5 92.1066 224.5 88.0268C224.5 83.947 221.188 80.6396 217.102 80.6396C213.016 80.6396 209.703 83.947 209.703 88.0268C209.703 92.1066 213.016 95.4139 217.102 95.4139Z" fill="#B9D4DB"/>
<path d="M266.381 98.7364C269.917 98.7364 272.784 95.8739 272.784 92.3428C272.784 88.8117 269.917 85.9492 266.381 85.9492C262.844 85.9492 259.977 88.8117 259.977 92.3428C259.977 95.8739 262.844 98.7364 266.381 98.7364Z" fill="#B9D4DB"/>
<path d="M243.084 90.3913C245.441 90.3913 247.352 88.4836 247.352 86.1302C247.352 83.7769 245.441 81.8691 243.084 81.8691C240.727 81.8691 238.816 83.7769 238.816 86.1302C238.816 88.4836 240.727 90.3913 243.084 90.3913Z" fill="#B9D4DB"/>
<path d="M248.044 119.605C253.694 119.605 258.274 115.031 258.274 109.39C258.274 103.748 253.694 99.1748 248.044 99.1748C242.393 99.1748 237.813 103.748 237.813 109.39C237.813 115.031 242.393 119.605 248.044 119.605Z" fill="#B9D4DB"/>
<path d="M418.442 251.699L324.017 302.484V187.288L418.442 157.855V251.699Z" fill="#E06714"/>
<path d="M324.017 187.288L212.55 176.029L189.706 142.378C189.441 141.988 189.288 141.535 189.263 141.065C189.237 140.595 189.34 140.127 189.561 139.712C189.782 139.296 190.112 138.948 190.515 138.706C190.919 138.463 191.381 138.335 191.853 138.335H296.856C297.33 138.335 297.795 138.465 298.2 138.71C298.606 138.955 298.936 139.307 299.155 139.727L324.017 187.288Z" fill="#F9AE2B"/>
<path d="M212.551 291.225L173.622 283.138C173.038 283.016 172.514 282.698 172.138 282.236C171.762 281.774 171.557 281.197 171.557 280.602V170.697C171.557 170.312 171.643 169.932 171.808 169.585C171.974 169.237 172.215 168.931 172.514 168.688C172.813 168.445 173.162 168.272 173.537 168.181C173.911 168.09 174.302 168.083 174.679 168.162L212.551 176.03V291.225Z" fill="#F9AE2B"/>
<path d="M361.598 314.976L324.017 302.484V187.288L363.237 200.325C363.753 200.497 364.203 200.826 364.521 201.267C364.84 201.708 365.011 202.238 365.011 202.782V312.518C365.011 312.929 364.913 313.333 364.726 313.698C364.539 314.063 364.268 314.379 363.934 314.619C363.601 314.859 363.215 315.016 362.809 315.078C362.403 315.14 361.988 315.105 361.598 314.976Z" fill="#F9AE2B"/>
<path d="M324.017 302.484L212.55 291.225V176.029L324.017 187.288V302.484Z" fill="#5270ED"/>
<path d="M295.673 333.305L181.938 328.774L212.551 291.225L324.017 302.484L297.727 332.425C297.472 332.715 297.155 332.945 296.799 333.097C296.444 333.25 296.059 333.321 295.673 333.305Z" fill="#F9AE2B"/>
<path d="M324.017 187.288L418.442 157.855L303.024 147.128L324.017 187.288Z" fill="#EE781D"/>
<path d="M212.55 291.225L324.017 239.257V187.288L212.55 176.029V291.225Z" fill="#021863"/>
<path d="M219.234 253.687C219.234 253.687 231.411 248.367 234.646 252.167C237.881 255.966 245.112 257.676 245.112 257.676L251.391 247.037L268.516 255.016L277.84 267.746L271.751 282.754C271.751 282.754 259.382 282.564 253.484 285.034C247.585 287.504 232.173 287.694 232.173 287.694L225.132 274.205C225.132 274.205 216.189 261.096 219.234 253.687Z" fill="#DBE8EC"/>
<path d="M245.112 257.676C246.283 258.712 247.408 259.787 248.51 260.88C249.622 261.966 250.693 263.086 251.767 264.203C252.818 265.339 253.898 266.452 254.917 267.614C255.946 268.769 256.993 269.909 257.986 271.093L255.794 272.176C255.297 270.11 254.806 268.043 254.367 265.965C253.918 263.889 253.533 261.798 253.131 259.711C252.398 255.521 251.714 251.32 251.391 247.037C252.944 251.042 254.138 255.128 255.281 259.225C255.817 261.282 256.371 263.335 256.861 265.402C257.359 267.467 257.807 269.544 258.248 271.622L258.252 271.64C258.31 271.914 258.275 272.2 258.151 272.452C258.028 272.704 257.824 272.907 257.571 273.03C257.318 273.152 257.032 273.187 256.758 273.128C256.483 273.069 256.236 272.92 256.056 272.705C255.065 271.518 254.127 270.287 253.171 269.072C252.205 267.864 251.3 266.607 250.366 265.372C249.455 264.119 248.541 262.869 247.668 261.584C246.786 260.307 245.926 259.011 245.112 257.676Z" fill="#BAD5DB"/>
<path d="M268.516 255.016C267.79 256.58 266.973 258.082 266.158 259.586C265.322 261.076 264.481 262.562 263.593 264.016C262.731 265.488 261.804 266.916 260.899 268.359C259.987 269.797 259.024 271.201 258.089 272.623L256.768 270.634C258.501 270.278 260.241 269.956 261.983 269.647C263.733 269.374 265.472 269.05 267.23 268.819C268.982 268.56 270.744 268.348 272.508 268.15C274.279 267.982 276.047 267.802 277.84 267.745C276.163 268.38 274.461 268.891 272.762 269.416C271.057 269.91 269.349 270.391 267.631 270.824C265.919 271.285 264.189 271.653 262.469 272.072C260.741 272.456 259.011 272.826 257.274 273.163L257.247 273.168C256.996 273.217 256.736 273.189 256.5 273.089C256.265 272.989 256.064 272.821 255.925 272.607C255.786 272.392 255.715 272.141 255.719 271.886C255.724 271.63 255.806 271.382 255.953 271.173C256.934 269.782 257.887 268.371 258.891 266.996C259.902 265.625 260.89 264.239 261.944 262.897C262.973 261.538 264.047 260.21 265.127 258.886C266.228 257.577 267.327 256.265 268.516 255.016Z" fill="#BAD5DB"/>
<path d="M271.751 282.754C270.346 282.09 269.017 281.322 267.681 280.565C266.362 279.784 265.055 278.988 263.774 278.155C261.196 276.511 258.702 274.755 256.254 272.938L258.127 272.568C256.647 274.976 255.113 277.352 253.467 279.661C252.662 280.825 251.807 281.96 250.948 283.093C250.069 284.213 249.19 285.333 248.221 286.398C248.718 285.047 249.306 283.751 249.893 282.454C250.502 281.17 251.113 279.889 251.775 278.637C253.063 276.112 254.462 273.655 255.916 271.23C256.002 271.085 256.117 270.959 256.252 270.859C256.388 270.758 256.542 270.685 256.706 270.644C256.87 270.603 257.04 270.595 257.207 270.619C257.374 270.644 257.535 270.701 257.68 270.788L257.778 270.853L257.789 270.861C260.25 272.661 262.666 274.524 264.998 276.499C266.172 277.475 267.32 278.488 268.456 279.517C269.574 280.568 270.701 281.61 271.751 282.754Z" fill="#BAD5DB"/>
<path d="M219.234 253.687C225.808 256.151 232.22 258.951 238.608 261.798C241.788 263.252 244.975 264.692 248.125 266.206C251.293 267.686 254.43 269.227 257.567 270.77L257.576 270.775C257.776 270.873 257.946 271.023 258.069 271.209C258.191 271.394 258.262 271.609 258.274 271.831C258.287 272.053 258.239 272.274 258.138 272.472C258.036 272.67 257.883 272.837 257.695 272.956C255.624 274.272 253.51 275.52 251.417 276.801C249.328 278.088 247.193 279.304 245.083 280.559C242.953 281.782 240.832 283.019 238.676 284.202C236.531 285.401 234.363 286.565 232.173 287.694C234.122 286.187 236.096 284.719 238.093 283.288C240.079 281.839 242.1 280.443 244.111 279.034C246.142 277.656 248.149 276.24 250.201 274.895C252.25 273.543 254.277 272.159 256.347 270.842L256.476 273.027C253.314 271.536 250.154 270.041 247.023 268.486C243.876 266.965 240.765 265.369 237.647 263.787C231.44 260.564 225.256 257.293 219.234 253.687Z" fill="#BAD5DB"/>
<path d="M224.355 272.991C226.578 272.152 228.716 271.105 230.74 269.862C232.624 268.752 234.193 267.18 235.299 265.295C236.257 263.366 236.601 261.19 236.287 259.06C235.964 256.715 235.415 254.406 234.646 252.166C236.355 254.02 237.603 256.25 238.29 258.675C239.074 261.281 238.822 264.089 237.586 266.515C236.252 268.84 234.175 270.651 231.688 271.656C229.38 272.66 226.87 273.117 224.355 272.991Z" fill="#BAD5DB"/>
<path d="M243.803 265.527C243.662 267.298 243.357 269.051 242.891 270.765C242.448 272.451 241.914 274.112 241.292 275.741C240.673 277.371 239.966 278.966 239.172 280.519C238.378 282.108 237.436 283.62 236.358 285.033C236.496 283.262 236.8 281.508 237.266 279.794C237.709 278.107 238.244 276.447 238.869 274.819C239.49 273.19 240.198 271.595 240.992 270.042C241.787 268.454 242.728 266.942 243.803 265.527Z" fill="#BAD5DB"/>
<path d="M218.602 316.319C218.602 316.319 209.325 325.824 204.896 323.52C200.466 321.215 193.123 322.349 193.123 322.349L191.316 334.565L172.443 333.609L159.006 325.32L158.989 309.127C158.989 309.127 170.519 304.655 175.053 300.149C179.586 295.644 193.794 289.676 193.794 289.676L205.401 299.527C205.401 299.527 218.629 308.31 218.602 316.319Z" fill="#C0D8DD"/>
<path d="M193.123 322.349C190.247 321.167 187.438 319.862 184.64 318.535C183.249 317.855 181.848 317.197 180.47 316.492C179.089 315.795 177.701 315.112 176.334 314.388L177.416 313.17C179.891 316.626 182.281 320.14 184.625 323.687C186.941 327.254 189.23 330.839 191.317 334.565C188.54 331.319 185.966 327.932 183.419 324.526C180.9 321.101 178.427 317.643 176.039 314.127L176.033 314.118C175.928 313.963 175.878 313.777 175.891 313.591C175.903 313.404 175.978 313.227 176.104 313.088C176.229 312.949 176.397 312.856 176.581 312.823C176.766 312.791 176.956 312.821 177.121 312.909C178.487 313.635 179.831 314.402 181.183 315.154C182.538 315.9 183.869 316.692 185.211 317.462C187.878 319.035 190.533 320.63 193.123 322.349Z" fill="#9FC6CC"/>
<path d="M172.443 333.609C172.813 330.208 173.347 326.843 173.935 323.489C174.514 320.133 175.188 316.798 175.885 313.468L177.201 314.365L172.752 317.254C171.247 318.185 169.763 319.146 168.242 320.053C166.733 320.976 165.206 321.873 163.674 322.761C162.13 323.633 160.591 324.511 159.006 325.32C160.374 324.184 161.789 323.117 163.199 322.042C164.62 320.986 166.047 319.937 167.491 318.915C168.924 317.877 170.393 316.892 171.842 315.878L176.253 312.93C176.396 312.835 176.563 312.784 176.735 312.785C176.906 312.786 177.074 312.838 177.215 312.935C177.357 313.031 177.466 313.168 177.529 313.327C177.592 313.486 177.606 313.661 177.569 313.828C176.838 317.151 176.084 320.469 175.235 323.767C174.395 327.067 173.5 330.355 172.443 333.609Z" fill="#9FC6CC"/>
<path d="M158.989 309.127C160.516 309.311 162.023 309.577 163.531 309.836C165.035 310.113 166.535 310.403 168.028 310.722C171.017 311.348 173.985 312.059 176.94 312.817L175.879 313.512C176.123 312.12 176.338 310.723 176.605 309.335C176.868 307.947 177.121 306.556 177.42 305.173C177.996 302.404 178.624 299.642 179.415 296.907C179.31 299.752 179.042 302.571 178.722 305.382C178.573 306.788 178.378 308.188 178.194 309.59C178.013 310.991 177.78 312.385 177.576 313.783C177.543 314.005 177.424 314.206 177.243 314.34C177.063 314.474 176.836 314.531 176.614 314.499L176.529 314.482L176.515 314.479C173.558 313.729 170.612 312.933 167.688 312.052C166.225 311.617 164.769 311.154 163.316 310.678C161.868 310.183 160.418 309.696 158.989 309.127Z" fill="#9FC6CC"/>
<path d="M218.602 316.319C215.099 316.309 211.601 316.211 208.103 316.123C204.606 316.02 201.112 315.871 197.618 315.718C190.632 315.383 183.651 314.971 176.675 314.482L176.668 314.481C176.52 314.471 176.377 314.421 176.255 314.337C176.132 314.253 176.034 314.138 175.971 314.004C175.908 313.87 175.881 313.722 175.894 313.574C175.908 313.426 175.96 313.285 176.046 313.164C177.468 311.166 178.935 309.2 180.379 307.218C181.82 305.234 183.307 303.282 184.769 301.312C186.254 299.359 187.719 297.393 189.238 295.463C190.752 293.531 192.241 291.581 193.794 289.676C192.503 291.766 191.147 293.811 189.817 295.875C188.491 297.94 187.113 299.969 185.753 302.011C184.37 304.037 183.013 306.08 181.609 308.091C180.21 310.105 178.832 312.134 177.41 314.132L176.781 312.814C183.764 313.208 190.74 313.686 197.712 314.249C201.197 314.541 204.682 314.837 208.164 315.18C211.644 315.537 215.126 315.884 218.602 316.319Z" fill="#9FC6CC"/>
<path d="M206.579 300.358C204.725 301.855 203.047 303.558 201.581 305.436C200.153 307.197 199.231 309.312 198.912 311.556C198.791 312.65 198.882 313.758 199.178 314.819C199.463 315.915 199.904 316.965 200.487 317.937C201.736 319.961 203.215 321.835 204.896 323.519C202.726 322.313 200.837 320.661 199.356 318.671C197.751 316.592 196.98 313.991 197.193 311.375C197.55 308.806 198.728 306.42 200.552 304.572C202.244 302.762 204.297 301.327 206.579 300.358Z" fill="#9FC6CC"/>
<path d="M191.375 314.582C191.001 312.866 190.738 311.129 190.589 309.379C190.425 307.643 190.32 305.905 190.283 304.166C190.241 302.427 190.271 300.687 190.359 298.945C190.43 297.19 190.617 295.443 190.919 293.713C191.296 295.428 191.56 297.166 191.708 298.915C191.871 300.652 191.978 302.389 192.011 304.128C192.051 305.868 192.022 307.608 191.933 309.35C191.861 311.104 191.675 312.852 191.375 314.582Z" fill="#9FC6CC"/>
</svg>
