<svg width="14" height="14" viewBox="0 0 14 14" fill="none" xmlns="http://www.w3.org/2000/svg">
<path d="M11.8125 6.12486V11.3749C11.8125 11.6069 11.7203 11.8295 11.5562 11.9936C11.3921 12.1577 11.1696 12.2499 10.9375 12.2499H3.0625C2.83044 12.2499 2.60788 12.1577 2.44378 11.9936C2.27969 11.8295 2.1875 11.6069 2.1875 11.3749V6.12486C2.1875 5.89279 2.27969 5.67023 2.44378 5.50614C2.60788 5.34204 2.83044 5.24986 3.0625 5.24986H4.375C4.49103 5.24986 4.60231 5.29595 4.68436 5.378C4.76641 5.46004 4.8125 5.57132 4.8125 5.68736C4.8125 5.80339 4.76641 5.91467 4.68436 5.99671C4.60231 6.07876 4.49103 6.12486 4.375 6.12486H3.0625V11.3749H10.9375V6.12486H9.625C9.50897 6.12486 9.39769 6.07876 9.31564 5.99671C9.23359 5.91467 9.1875 5.80339 9.1875 5.68736C9.1875 5.57132 9.23359 5.46004 9.31564 5.378C9.39769 5.29595 9.50897 5.24986 9.625 5.24986H10.9375C11.1696 5.24986 11.3921 5.34204 11.5562 5.50614C11.7203 5.67023 11.8125 5.89279 11.8125 6.12486ZM5.12203 3.80939L6.5625 2.36837V7.43736C6.5625 7.55339 6.60859 7.66467 6.69064 7.74672C6.77269 7.82876 6.88397 7.87486 7 7.87486C7.11603 7.87486 7.22731 7.82876 7.30936 7.74672C7.39141 7.66467 7.4375 7.55339 7.4375 7.43736V2.36837L8.87797 3.80939C8.96006 3.89148 9.0714 3.9376 9.1875 3.9376C9.3036 3.9376 9.41494 3.89148 9.49703 3.80939C9.57912 3.72729 9.62524 3.61595 9.62524 3.49986C9.62524 3.38376 9.57912 3.27242 9.49703 3.19032L7.30953 1.00282C7.2689 0.962147 7.22065 0.929878 7.16754 0.907861C7.11442 0.885844 7.05749 0.874512 7 0.874512C6.94251 0.874512 6.88558 0.885844 6.83246 0.907861C6.77935 0.929878 6.7311 0.962147 6.69047 1.00282L4.50297 3.19032C4.42088 3.27242 4.37476 3.38376 4.37476 3.49986C4.37476 3.61595 4.42088 3.72729 4.50297 3.80939C4.58506 3.89148 4.6964 3.9376 4.8125 3.9376C4.9286 3.9376 5.03994 3.89148 5.12203 3.80939Z" fill="#021863" />
</svg>
