<svg width="64" height="64" viewBox="0 0 64 64" fill="none" xmlns="http://www.w3.org/2000/svg">
<g clip-path="url(#clip0_345_2034)">
<path d="M32.0485 63.0273C49.4795 63.0273 63.6101 48.9182 63.6101 31.5137C63.6101 14.1091 49.4795 0 32.0485 0C14.6175 0 0.486816 14.1091 0.486816 31.5137C0.486816 48.9182 14.6175 63.0273 32.0485 63.0273Z" fill="#F4F4F4"/>
<mask id="mask0_345_2034" style="mask-type:luminance" maskUnits="userSpaceOnUse" x="11" y="10" width="42" height="44">
<path d="M52.5053 27.8172H32.5357V36.0846H44.0304C42.9589 41.3369 38.4779 44.3521 32.5357 44.3521C25.522 44.3521 19.8721 38.7108 19.8721 31.7077C19.8721 24.7047 25.522 19.0634 32.5357 19.0634C35.5555 19.0634 38.283 20.1333 40.4261 21.8841L46.6605 15.6591C42.8615 12.3521 37.9908 10.3096 32.5357 10.3096C20.6514 10.3096 11.105 19.8415 11.105 31.7077C11.105 43.574 20.6514 53.1059 32.5357 53.1059C43.2511 53.1059 52.9924 45.3248 52.9924 31.7077C52.9924 30.4433 52.7975 29.0816 52.5053 27.8172Z" fill="white"/>
</mask>
<g mask="url(#mask0_345_2034)">
<path d="M9.15674 44.3522V19.0635L25.7169 31.7079L9.15674 44.3522Z" fill="#FBBC05"/>
</g>
<mask id="mask1_345_2034" style="mask-type:luminance" maskUnits="userSpaceOnUse" x="11" y="10" width="42" height="44">
<path d="M52.5053 27.8172H32.5357V36.0846H44.0304C42.9589 41.3369 38.4779 44.3521 32.5357 44.3521C25.522 44.3521 19.8721 38.7108 19.8721 31.7077C19.8721 24.7047 25.522 19.0634 32.5357 19.0634C35.5555 19.0634 38.283 20.1333 40.4261 21.8841L46.6605 15.6591C42.8615 12.3521 37.9908 10.3096 32.5357 10.3096C20.6514 10.3096 11.105 19.8415 11.105 31.7077C11.105 43.574 20.6514 53.1059 32.5357 53.1059C43.2511 53.1059 52.9924 45.3248 52.9924 31.7077C52.9924 30.4433 52.7975 29.0816 52.5053 27.8172Z" fill="white"/>
</mask>
<g mask="url(#mask1_345_2034)">
<path d="M9.15674 19.0633L25.7169 31.7077L32.5357 25.7746L55.9147 21.9813V8.36426H9.15674V19.0633Z" fill="#EA4335"/>
</g>
<mask id="mask2_345_2034" style="mask-type:luminance" maskUnits="userSpaceOnUse" x="11" y="10" width="42" height="44">
<path d="M52.5053 27.8172H32.5357V36.0846H44.0304C42.9589 41.3369 38.4779 44.3521 32.5357 44.3521C25.522 44.3521 19.8721 38.7108 19.8721 31.7077C19.8721 24.7047 25.522 19.0634 32.5357 19.0634C35.5555 19.0634 38.283 20.1333 40.4261 21.8841L46.6605 15.6591C42.8615 12.3521 37.9908 10.3096 32.5357 10.3096C20.6514 10.3096 11.105 19.8415 11.105 31.7077C11.105 43.574 20.6514 53.1059 32.5357 53.1059C43.2511 53.1059 52.9924 45.3248 52.9924 31.7077C52.9924 30.4433 52.7975 29.0816 52.5053 27.8172Z" fill="white"/>
</mask>
<g mask="url(#mask2_345_2034)">
<path d="M9.15674 44.3521L38.3805 21.9813L46.0761 22.9539L55.9147 8.36426V55.0512H9.15674V44.3521Z" fill="#34A853"/>
</g>
<mask id="mask3_345_2034" style="mask-type:luminance" maskUnits="userSpaceOnUse" x="11" y="10" width="42" height="44">
<path d="M52.5053 27.8172H32.5357V36.0846H44.0304C42.9589 41.3369 38.4779 44.3521 32.5357 44.3521C25.522 44.3521 19.8721 38.7108 19.8721 31.7077C19.8721 24.7047 25.522 19.0634 32.5357 19.0634C35.5555 19.0634 38.283 20.1333 40.4261 21.8841L46.6605 15.6591C42.8615 12.3521 37.9908 10.3096 32.5357 10.3096C20.6514 10.3096 11.105 19.8415 11.105 31.7077C11.105 43.574 20.6514 53.1059 32.5357 53.1059C43.2511 53.1059 52.9924 45.3248 52.9924 31.7077C52.9924 30.4433 52.7975 29.0816 52.5053 27.8172Z" fill="white"/>
</mask>
<g mask="url(#mask3_345_2034)">
<path d="M55.9147 55.0513L25.7168 31.7079L21.8203 28.7899L55.9147 19.0635V55.0513Z" fill="#4285F4"/>
</g>
</g>
<defs>
<clipPath id="clip0_345_2034">
<rect width="64" height="64" fill="white"/>
</clipPath>
</defs>
</svg>
