<svg width="252" height="256" viewBox="0 0 252 256" fill="none" xmlns="http://www.w3.org/2000/svg">
<g clip-path="url(#clip0_25_1851)">
<path d="M87 127C121.242 127 149 99.2417 149 65C149 30.7583 121.242 3 87 3C52.7584 3 25 30.7583 25 65C25 99.2417 52.7584 127 87 127Z" fill="#5270ED"/>
<path d="M178 52C185.732 52 192 45.732 192 38C192 30.268 185.732 24 178 24C170.268 24 164 30.268 164 38C164 45.732 170.268 52 178 52Z" fill="#FFB636"/>
<path d="M162.689 78.0352C162.207 69.7755 159.977 61.7123 156.146 54.379C152.314 47.0457 146.97 40.6095 140.465 35.4962C133.961 30.3829 126.445 26.7091 118.414 24.7178C110.383 22.7265 102.022 22.4631 93.8817 23.9451C85.7417 25.4271 78.0092 28.6206 71.1958 33.3144C64.3824 38.0082 58.6433 44.0953 54.3582 51.1729C50.0732 58.2506 47.3398 66.1575 46.3391 74.3705C45.3383 82.5835 46.0929 90.9154 48.553 98.8149L3.76392 143.604C3.06137 144.313 2.54389 145.185 2.257 146.141C1.9701 147.097 1.92258 148.109 2.11861 149.088L6.14048 169.198C6.64457 171.725 7.88598 174.046 9.70802 175.868C11.53 177.69 13.851 178.931 16.378 179.435L36.4874 183.457H37.7061C38.5081 183.462 39.3031 183.308 40.0455 183.005C40.788 182.702 41.4633 182.255 42.0327 181.69L56.1702 167.552C57.2959 166.417 57.9306 164.885 57.9374 163.287V149.21L72.3795 148.784C73.9358 148.746 75.4185 148.113 76.5233 147.016L86.6389 136.901C95.6524 139.733 105.218 140.338 114.516 138.663C123.815 136.988 132.568 133.083 140.027 127.284C147.486 121.485 153.427 113.964 157.342 105.365C161.257 96.7665 163.029 87.3468 162.506 77.9134L162.689 78.0352ZM137.217 113.988C130.85 120.348 122.767 124.714 113.958 126.554C105.149 128.394 95.9944 127.627 87.6139 124.348C86.5142 123.915 85.3122 123.811 84.1545 124.049C82.9968 124.287 81.9333 124.857 81.0936 125.688L69.942 136.84L51.9045 137.327C50.2884 137.327 48.7384 137.969 47.5956 139.112C46.4528 140.255 45.8108 141.805 45.8108 143.421V160.91L35.6952 170.904L18.7545 167.491C18.5922 167.452 18.4439 167.368 18.3257 167.25C18.2075 167.132 18.124 166.984 18.0842 166.821L14.6717 149.881L59.8874 104.665C60.7191 103.825 61.2886 102.762 61.5266 101.604C61.7647 100.446 61.6609 99.2444 61.228 98.1446C58.2226 90.3855 57.3661 81.9593 58.7487 73.7541C60.1313 65.5489 63.7018 57.8687 69.0839 51.5228C74.466 45.177 81.4603 40.4006 89.3297 37.6971C97.1991 34.9936 105.652 34.463 113.798 36.1614C121.943 37.8598 129.48 41.7242 135.613 47.3472C141.747 52.9703 146.249 60.1439 148.647 68.1118C151.045 76.0797 151.249 84.5469 149.237 92.6209C147.225 100.695 143.073 108.077 137.217 113.988Z" fill="#021863"/>
<path d="M177.54 67.9158C171.359 62.4161 164.08 58.2916 156.186 55.8152C148.291 53.3388 139.961 52.567 131.746 53.5507C123.531 54.5345 115.618 57.2514 108.532 61.5218C101.445 65.7922 95.3463 71.5187 90.6384 78.3224C85.9305 85.1261 82.721 92.852 81.2222 100.989C79.7234 109.126 79.9694 117.488 81.9441 125.523C83.9188 133.557 87.5771 141.081 92.6769 147.596C97.7767 154.111 104.202 159.469 111.527 163.316L111.527 226.657C111.532 227.655 111.782 228.637 112.255 229.516C112.729 230.395 113.411 231.145 114.242 231.698L131.305 243.074C133.448 244.504 135.967 245.268 138.544 245.268C141.121 245.268 143.64 244.504 145.783 243.074L162.847 231.698L163.708 230.837C164.279 230.273 164.732 229.602 165.043 228.862C165.353 228.123 165.515 227.33 165.518 226.528L165.518 206.534C165.512 204.936 164.877 203.404 163.751 202.268L153.798 192.315L163.708 181.801C164.782 180.673 165.383 179.178 165.389 177.621L165.389 163.316C173.765 158.945 180.956 152.608 186.347 144.849C191.738 137.09 195.166 128.139 196.34 118.764C197.513 109.39 196.396 99.8701 193.085 91.0216C189.773 82.1731 184.365 74.2595 177.325 67.9589L177.54 67.9158ZM184.951 111.35C184.946 120.349 182.318 129.152 177.39 136.682C172.462 144.212 165.447 150.143 157.202 153.75C156.118 154.221 155.195 154.998 154.544 155.985C153.894 156.972 153.545 158.126 153.539 159.308V175.079L141.13 188.178C139.987 189.321 139.345 190.871 139.345 192.487C139.345 194.103 139.987 195.653 141.13 196.796L153.496 209.163L153.41 223.382L139.018 232.948C138.875 233.035 138.711 233.08 138.544 233.08C138.377 233.08 138.213 233.035 138.07 232.948L123.678 223.382L123.678 159.438C123.673 158.256 123.323 157.101 122.673 156.114C122.023 155.127 121.1 154.351 120.016 153.879C112.404 150.518 105.84 145.165 101.016 138.385C96.1916 131.606 93.2856 123.65 92.6041 115.357C91.9227 107.065 93.491 98.7415 97.1438 91.2653C100.797 83.7891 106.399 77.4368 113.359 72.8778C120.32 68.3189 128.382 65.7222 136.695 65.3615C145.008 65.0007 153.264 66.8892 160.594 70.828C167.924 74.7667 174.055 80.6099 178.342 87.7415C182.628 94.8731 184.912 103.029 184.951 111.35Z" fill="#021863"/>
<path d="M115.017 111.479C115.018 116.131 116.398 120.678 118.983 124.545C121.568 128.413 125.242 131.427 129.54 133.207C133.838 134.986 138.567 135.452 143.129 134.544C147.692 133.636 151.882 131.396 155.172 128.107C158.461 124.818 160.701 120.627 161.609 116.064C162.517 111.502 162.051 106.773 160.271 102.475C158.492 98.1773 155.478 94.5037 151.61 91.9187C147.743 89.3337 143.196 87.9534 138.544 87.9525C132.372 88.1638 126.509 90.7103 122.142 95.0775C117.775 99.4446 115.229 105.307 115.017 111.479ZM149.92 111.479C149.911 113.717 149.241 115.903 147.992 117.761C146.744 119.618 144.973 121.065 142.904 121.917C140.834 122.77 138.559 122.991 136.364 122.553C134.169 122.114 132.153 121.035 130.571 119.453C128.988 117.87 127.909 115.854 127.471 113.659C127.032 111.464 127.253 109.189 128.106 107.12C128.959 105.05 130.405 103.28 132.263 102.031C134.12 100.782 136.306 100.112 138.544 100.104C141.559 100.109 144.45 101.309 146.582 103.441C148.714 105.573 149.914 108.464 149.92 111.479Z" fill="#021863"/>
</g>
<defs>
<clipPath id="clip0_25_1851">
<rect width="252" height="256" fill="white"/>
</clipPath>
</defs>
</svg>
