<svg width="25" height="24" viewBox="0 0 25 24" fill="none" xmlns="http://www.w3.org/2000/svg">
<mask id="mask0_398_4348" style="mask-type:alpha" maskUnits="userSpaceOnUse" x="0" y="0" width="25" height="24">
<rect x="0.25" width="24" height="24" fill="#D9D9D9"/>
</mask>
<g mask="url(#mask0_398_4348)">
<path d="M19.7922 20.577L13.5115 14.2962C13.0115 14.7091 12.4365 15.0321 11.7865 15.2655C11.1365 15.4988 10.464 15.6155 9.76916 15.6155C8.05999 15.6155 6.61348 15.0237 5.42961 13.8401C4.24574 12.6566 3.65381 11.2104 3.65381 9.50169C3.65381 7.79296 4.24559 6.34628 5.42916 5.16167C6.61273 3.97707 8.05888 3.38477 9.76761 3.38477C11.4763 3.38477 12.923 3.9767 14.1076 5.16057C15.2922 6.34443 15.8845 7.79095 15.8845 9.50012C15.8845 10.2142 15.7647 10.8963 15.5249 11.5463C15.2852 12.1963 14.9653 12.7617 14.5653 13.2424L20.8461 19.5232L19.7922 20.577ZM9.76916 14.1155C11.0576 14.1155 12.149 13.6684 13.0432 12.7742C13.9374 11.8799 14.3846 10.7886 14.3846 9.50012C14.3846 8.21165 13.9374 7.1203 13.0432 6.22607C12.149 5.33183 11.0576 4.88472 9.76916 4.88472C8.48069 4.88472 7.38934 5.33183 6.49511 6.22607C5.60089 7.1203 5.15378 8.21165 5.15378 9.50012C5.15378 10.7886 5.60089 11.8799 6.49511 12.7742C7.38934 13.6684 8.48069 14.1155 9.76916 14.1155Z" fill="#1C1B1F" fill-opacity="0.8"/>
</g>
</svg>
