<svg width="24" height="24" viewBox="0 0 24 24" fill="none" xmlns="http://www.w3.org/2000/svg">
<mask id="mask0_397_4394" style="mask-type:alpha" maskUnits="userSpaceOnUse" x="0" y="0" width="24" height="24">
<rect width="24" height="24" fill="#D9D9D9"/>
</mask>
<g mask="url(#mask0_397_4394)">
<path d="M12.0385 19.5C9.9448 19.5 8.17137 18.7735 6.71825 17.3207C5.26513 15.8679 4.53857 14.0948 4.53857 12.0015C4.53857 9.90818 5.26513 8.13461 6.71825 6.68078C8.17137 5.22693 9.9448 4.5 12.0385 4.5C13.2078 4.5 14.3142 4.75994 15.3578 5.27982C16.4014 5.79969 17.2693 6.53335 17.9616 7.4808V4.5H19.4616V10.6153H13.3462V9.11538H17.2962C16.7693 8.14999 16.0385 7.38941 15.1039 6.83363C14.1693 6.27786 13.1475 5.99998 12.0385 5.99998C10.3719 5.99998 8.95522 6.58331 7.78855 7.74998C6.62188 8.91664 6.03855 10.3333 6.03855 12C6.03855 13.6666 6.62188 15.0833 7.78855 16.25C8.95522 17.4166 10.3719 18 12.0385 18C13.3219 18 14.4802 17.6333 15.5135 16.9C16.5469 16.1666 17.2719 15.2 17.6885 14H19.2693C18.8154 15.632 17.9215 16.9567 16.5876 17.974C15.2536 18.9913 13.7372 19.5 12.0385 19.5Z" fill="#707070" fill-opacity="0.7"/>
</g>
</svg>
