<svg width="252" height="256" viewBox="0 0 252 256" fill="none" xmlns="http://www.w3.org/2000/svg">
<path d="M87 127C121.242 127 149 99.2417 149 65C149 30.7583 121.242 3 87 3C52.7584 3 25 30.7583 25 65C25 99.2417 52.7584 127 87 127Z" fill="#5270ED"/>
<path d="M170.507 80.222C170.507 82.1153 170.378 84.0087 170.141 85.8805C170.249 85.1275 170.356 84.3529 170.443 83.5999C169.926 87.3435 168.937 90.9796 167.496 94.4651C167.775 93.7766 168.076 93.0881 168.356 92.3996C166.915 95.799 165.065 98.9833 162.806 101.909L164.162 100.167C161.925 103.05 159.322 105.653 156.44 107.891L158.182 106.535C155.256 108.773 152.073 110.645 148.674 112.086C149.363 111.806 150.051 111.505 150.739 111.225C147.255 112.667 143.62 113.657 139.877 114.173C140.63 114.065 141.404 113.958 142.157 113.872C138.393 114.367 134.607 114.367 130.843 113.872C131.595 113.979 132.37 114.087 133.123 114.173C129.38 113.657 125.745 112.667 122.26 111.225C122.948 111.505 123.637 111.806 124.325 112.086C120.926 110.645 117.743 108.794 114.818 106.535L116.56 107.891C113.678 105.653 111.075 103.05 108.838 100.167L110.193 101.909C107.956 98.9833 106.085 95.799 104.643 92.3996C104.923 93.0881 105.224 93.7766 105.504 94.4651C104.063 90.9796 103.073 87.3435 102.557 83.5999C102.664 84.3529 102.772 85.1275 102.858 85.8805C102.363 82.1153 102.363 78.3287 102.858 74.5635C102.751 75.3165 102.643 76.0911 102.557 76.8441C103.073 73.1005 104.063 69.4644 105.504 65.9789C105.224 66.6674 104.923 67.3559 104.643 68.0444C106.085 64.645 107.934 61.4607 110.193 58.5347L108.838 60.2774C111.075 57.3943 113.678 54.791 116.56 52.5534L114.818 53.9089C117.743 51.6713 120.926 49.7995 124.325 48.358C123.637 48.6376 122.948 48.9389 122.26 49.2186C125.745 47.777 129.38 46.7873 133.123 46.271C132.37 46.3785 131.595 46.4861 130.843 46.5722C134.607 46.0773 138.393 46.0773 142.157 46.5722C141.404 46.4646 140.63 46.357 139.877 46.271C143.62 46.7873 147.255 47.777 150.739 49.2186C150.051 48.9389 149.363 48.6376 148.674 48.358C152.073 49.7995 155.256 51.6498 158.182 53.9089L156.44 52.5534C159.322 54.791 161.925 57.3943 164.162 60.2774L162.806 58.5347C165.044 61.4607 166.915 64.645 168.356 68.0444C168.076 67.3559 167.775 66.6674 167.496 65.9789C168.937 69.4644 169.926 73.1005 170.443 76.8441C170.335 76.0911 170.227 75.3165 170.141 74.5635C170.378 76.4353 170.486 78.3287 170.507 80.222C170.529 84.7187 174.443 89.0432 179.111 88.8281C183.757 88.6129 187.737 85.0414 187.715 80.222C187.672 69.9162 184.575 59.3737 178.509 50.9828C176.874 48.7237 175.132 46.5076 173.196 44.5067C171.238 42.4843 169.087 40.7416 166.85 39.0419C162.785 35.9437 158.246 33.663 153.428 31.8988C134.005 24.7773 110.58 31.1242 97.4376 47.1316C95.6307 49.3261 93.9099 51.6067 92.4472 54.0595C90.9846 56.4907 89.8445 59.0725 88.7905 61.6974C86.8116 66.5598 85.8006 71.7235 85.392 76.9517C84.5961 87.1929 87.2633 97.886 92.5978 106.664C97.7387 115.141 105.504 122.413 114.581 126.523C117.248 127.728 119.98 128.846 122.819 129.642C125.637 130.417 128.498 130.847 131.402 131.192C136.693 131.816 142.092 131.385 147.319 130.331C167.173 126.286 183.8 109.182 186.876 89.1078C187.328 86.1817 187.672 83.2557 187.672 80.2866C187.694 75.7899 183.693 71.4653 179.068 71.6805C174.422 71.8311 170.507 75.4026 170.507 80.222ZM199.051 214.757H88.683C83.8002 214.757 78.9174 214.8 74.0347 214.757C73.4969 214.757 72.9592 214.714 72.4429 214.649C73.1958 214.757 73.9701 214.864 74.723 214.95C73.8626 214.821 73.0452 214.585 72.2493 214.262C72.9377 214.542 73.626 214.843 74.3143 215.122C73.4539 214.757 72.658 214.283 71.9052 213.702L73.6475 215.058C73.0022 214.52 72.3999 213.939 71.8837 213.294L73.2388 215.036C72.658 214.283 72.2063 213.487 71.8191 212.627C72.0988 213.315 72.3999 214.004 72.6795 214.692C72.3569 213.896 72.1418 213.057 71.9912 212.218C72.0988 212.971 72.2063 213.746 72.2924 214.499C71.9482 211.895 72.1848 209.141 72.1848 206.516V197.308C72.1848 195.006 72.3139 192.725 72.615 190.445C72.5075 191.198 72.3999 191.972 72.3139 192.725C72.9162 188.315 74.0777 183.99 75.82 179.881C75.5404 180.569 75.2392 181.258 74.9596 181.946C76.6374 178.03 78.7884 174.351 81.3911 170.973L80.036 172.716C82.6387 169.381 85.6286 166.369 88.9841 163.766L87.2418 165.121C90.6189 162.518 94.2971 160.366 98.2119 158.688C97.5236 158.968 96.8353 159.269 96.147 159.549C100.255 157.827 104.557 156.644 108.988 156.042C108.236 156.149 107.461 156.257 106.708 156.343C109.892 155.934 113.054 155.913 116.259 155.913H155.622C159.171 155.913 162.699 155.891 166.248 156.343C165.495 156.235 164.721 156.128 163.968 156.042C168.378 156.644 172.701 157.806 176.809 159.549C176.121 159.269 175.433 158.968 174.745 158.688C178.659 160.366 182.338 162.518 185.715 165.121L183.972 163.766C187.306 166.369 190.318 169.36 192.92 172.716L191.565 170.973C194.168 174.351 196.319 178.03 197.997 181.946C197.717 181.258 197.416 180.569 197.136 179.881C198.857 183.99 200.04 188.293 200.643 192.725C200.535 191.972 200.427 191.198 200.341 190.445C200.75 193.693 200.772 196.921 200.772 200.191V210.841C200.772 212.067 200.815 213.294 200.664 214.499C200.772 213.746 200.879 212.971 200.965 212.218C200.836 213.079 200.6 213.896 200.277 214.692C200.557 214.004 200.858 213.315 201.137 212.627C200.772 213.487 200.298 214.283 199.718 215.036L201.073 213.294C200.535 213.939 199.954 214.542 199.309 215.058L201.051 213.702C200.298 214.283 199.503 214.735 198.642 215.122C199.33 214.843 200.019 214.542 200.707 214.262C199.911 214.585 199.072 214.8 198.233 214.95C198.986 214.843 199.761 214.735 200.514 214.649C200.04 214.714 199.546 214.735 199.051 214.757C196.835 214.778 194.555 215.703 192.963 217.274C191.479 218.759 190.339 221.211 190.447 223.363C190.662 227.967 194.233 232.033 199.051 231.969C207.418 231.84 214.775 226.375 217.227 218.35C218.195 215.166 217.98 211.745 217.98 208.474C217.98 200.987 218.216 193.564 216.926 186.141C215.033 175.276 209.569 165.057 202.084 157.031C194.598 149.006 184.532 143.111 173.884 140.486C167.775 138.98 161.623 138.743 155.386 138.743H117.227C110.838 138.743 104.493 139.045 98.2764 140.701C87.715 143.498 77.7774 149.458 70.4425 157.548C63.0431 165.702 57.6871 175.943 55.9448 186.873C54.7832 194.21 55.0198 201.568 55.0198 208.969C55.0198 212.369 54.8262 215.919 56.0523 219.167C57.644 223.341 60.1822 226.633 63.9035 229.107C66.8073 231.022 70.4855 231.947 73.9271 231.99C75.6049 232.012 77.2827 231.99 78.9605 231.99H199.072C203.568 231.99 207.891 228.032 207.676 223.384C207.461 218.694 203.891 214.757 199.051 214.757Z" fill="#021863"/>
<path d="M176 49C183.732 49 190 42.732 190 35C190 27.268 183.732 21 176 21C168.268 21 162 27.268 162 35C162 42.732 168.268 49 176 49Z" fill="#FFB636"/>
</svg>
