<svg width="196" height="196" viewBox="0 0 196 196" fill="none" xmlns="http://www.w3.org/2000/svg">
<g opacity="0.4">
<rect x="0.5" width="161" height="161" rx="80.5" fill="#5270ED"/>
</g>
<path fill-rule="evenodd" clip-rule="evenodd" d="M61.4375 13.1875C41.2611 13.1875 24.875 29.5736 24.875 49.75C24.875 69.9264 41.2611 86.3125 61.4375 86.3125C74.9595 86.3125 86.7692 78.9573 93.0945 68.0312H104.094C105.038 68.0312 105.971 67.818 106.818 67.3914L116.281 62.6505L125.745 67.3914C126.592 67.818 127.524 68.0312 128.469 68.0312H152.844C154.459 68.0312 156.013 67.3914 157.152 66.2458L169.34 54.0583C171.722 51.6817 171.722 47.8183 169.34 45.4417L157.152 33.2542C156.013 32.1086 154.459 31.4688 152.844 31.4688H93.0945C86.7753 20.5427 74.9595 13.1875 61.4375 13.1875ZM61.4375 31.4688C71.5288 31.4688 79.7188 39.6587 79.7188 49.75C79.7188 59.8413 71.5288 68.0312 61.4375 68.0312C51.3462 68.0312 43.1562 59.8413 43.1562 49.75C43.1562 39.6587 51.3462 31.4688 61.4375 31.4688ZM61.4375 43.6562C58.0737 43.6562 55.3438 46.3862 55.3438 49.75C55.3438 53.1138 58.0737 55.8438 61.4375 55.8438C64.8013 55.8438 67.5312 53.1138 67.5312 49.75C67.5312 46.3862 64.8013 43.6562 61.4375 43.6562ZM37.0625 98.5C23.6075 98.5 12.6875 109.42 12.6875 122.875V159.438C12.6875 172.893 23.6075 183.812 37.0625 183.812H158.938C172.393 183.812 183.312 172.893 183.312 159.438V122.875C183.312 109.42 172.393 98.5 158.938 98.5H37.0625ZM43.1562 126.446C44.7163 126.446 46.2762 127.043 47.4645 128.231L51.7728 132.54L56.0811 128.231C58.4577 125.855 62.3211 125.855 64.6977 128.231C67.0742 130.608 67.0742 134.471 64.6977 136.848L60.3894 141.156L64.6977 145.465C67.0742 147.841 67.0742 151.705 64.6977 154.081C62.3211 156.458 58.4577 156.458 56.0811 154.081L51.7728 149.773L47.4645 154.081C45.088 156.458 41.2245 156.458 38.848 154.081C36.4714 151.705 36.4714 147.841 38.848 145.465L43.1562 141.156L38.848 136.848C36.4714 134.471 36.4714 130.608 38.848 128.231C40.0363 127.043 41.5963 126.446 43.1562 126.446ZM89.3834 126.446C90.9434 126.446 92.5034 127.043 93.6917 128.231L98 132.54L102.308 128.231C104.685 125.855 108.548 125.855 110.925 128.231C113.301 130.608 113.301 134.471 110.925 136.848L106.617 141.156L110.925 145.465C113.301 147.841 113.301 151.705 110.925 154.081C108.548 156.458 104.685 156.458 102.308 154.081L98 149.773L93.6917 154.081C91.3152 156.458 87.4517 156.458 85.0752 154.081C82.6986 151.705 82.6986 147.841 85.0752 145.465L89.3834 141.156L85.0752 136.848C82.6986 134.471 82.6986 130.608 85.0752 128.231C86.2634 127.043 87.8234 126.446 89.3834 126.446ZM135.611 126.446C137.171 126.446 138.731 127.043 139.919 128.231L144.227 132.54L148.535 128.231C150.912 125.855 154.775 125.855 157.152 128.231C159.529 130.608 159.529 134.471 157.152 136.848L152.844 141.156L157.152 145.465C159.529 147.841 159.529 151.705 157.152 154.081C154.775 156.458 150.912 156.458 148.535 154.081L144.227 149.773L139.919 154.081C137.542 156.458 133.679 156.458 131.302 154.081C128.926 151.705 128.926 147.841 131.302 145.465L135.611 141.156L131.302 136.848C128.926 134.471 128.926 130.608 131.302 128.231C132.491 127.043 134.051 126.446 135.611 126.446Z" fill="#021863"/>
</svg>
