<svg width="25" height="24" viewBox="0 0 25 24" fill="none" xmlns="http://www.w3.org/2000/svg">
<mask id="mask0_721_12043" style="mask-type:alpha" maskUnits="userSpaceOnUse" x="0" y="0" width="25" height="24">
<rect x="0.5" width="24" height="24" fill="#D9D9D9"/>
</mask>
<g mask="url(#mask0_721_12043)">
<path d="M20.0423 20.577L13.7615 14.2962C13.2615 14.7091 12.6865 15.0321 12.0365 15.2655C11.3865 15.4988 10.7141 15.6155 10.0192 15.6155C8.31006 15.6155 6.86354 15.0237 5.67967 13.8401C4.49581 12.6566 3.90387 11.2104 3.90387 9.50169C3.90387 7.79296 4.49566 6.34628 5.67922 5.16167C6.86279 3.97707 8.30894 3.38477 10.0177 3.38477C11.7264 3.38477 13.1731 3.9767 14.3577 5.16057C15.5423 6.34443 16.1346 7.79095 16.1346 9.50012C16.1346 10.2142 16.0147 10.8963 15.775 11.5463C15.5352 12.1963 15.2153 12.7617 14.8153 13.2424L21.0961 19.5232L20.0423 20.577ZM10.0192 14.1155C11.3077 14.1155 12.399 13.6684 13.2933 12.7742C14.1875 11.8799 14.6346 10.7886 14.6346 9.50012C14.6346 8.21165 14.1875 7.1203 13.2933 6.22607C12.399 5.33183 11.3077 4.88472 10.0192 4.88472C8.73076 4.88472 7.63941 5.33183 6.74517 6.22607C5.85096 7.1203 5.40385 8.21165 5.40385 9.50012C5.40385 10.7886 5.85096 11.8799 6.74517 12.7742C7.63941 13.6684 8.73076 14.1155 10.0192 14.1155Z" fill="#1C1B1F" fill-opacity="0.8"/>
</g>
</svg>
