<svg width="196" height="196" viewBox="0 0 196 196" fill="none" xmlns="http://www.w3.org/2000/svg">
<g opacity="0.4">
<rect x="0.5" width="161" height="161" rx="80.5" fill="#5270ED"/>
</g>
<g clip-path="url(#clip0_361_2121)">
<path d="M93.7082 116.334C93.7082 120.315 90.4809 123.542 86.4998 123.542C82.5188 123.542 79.2915 120.315 79.2915 116.334C79.2915 112.353 82.5188 109.125 86.4998 109.125C90.4809 109.125 93.7082 112.353 93.7082 116.334Z" fill="#021863"/>
<path fill-rule="evenodd" clip-rule="evenodd" d="M150.803 11.1279C152.538 12.4591 153.3 14.7041 152.734 16.8163L145.558 43.5962L159.225 35.7055C161.811 34.2126 165.118 35.0985 166.611 37.6843C168.103 40.2701 167.217 43.5765 164.632 45.0694L139.661 59.486C137.768 60.5793 135.402 60.4243 133.667 59.0931C131.932 57.762 131.17 55.517 131.736 53.4048L138.912 26.6249L125.245 34.5156C122.659 36.0085 119.352 35.1226 117.86 32.5368C116.367 29.951 117.253 26.6446 119.838 25.1517L144.809 10.7351C146.702 9.64175 149.068 9.79682 150.803 11.1279ZM86.0862 10.0108L86.4998 10.0108C89.4856 10.0108 91.9061 12.4312 91.9061 15.417C91.9061 18.4028 89.4856 20.8233 86.4998 20.8233C69.3568 20.8233 57.0434 20.8347 47.6727 22.0946C38.4576 23.3335 32.9019 25.6899 28.7957 29.7962C24.6894 33.9024 22.333 39.4581 21.0941 48.6732C19.8342 58.0439 19.8228 70.3573 19.8228 87.5004C19.8228 104.643 19.8342 116.957 21.0941 126.327C22.333 135.543 24.6894 141.098 28.7957 145.205C32.9019 149.311 38.4576 151.667 47.6727 152.906C57.0434 154.166 69.3568 154.177 86.4998 154.177C103.643 154.177 115.956 154.166 125.327 152.906C134.542 151.667 140.098 149.311 144.204 145.205C148.31 141.098 150.667 135.543 151.906 126.327C153.165 116.957 153.177 104.643 153.177 87.5004C153.177 84.5146 155.597 82.0941 158.583 82.0941C161.569 82.0941 163.989 84.5146 163.989 87.5004V87.9139C163.99 104.554 163.99 117.594 162.622 127.768C161.222 138.182 158.3 146.4 151.85 152.85C145.4 159.3 137.182 162.222 126.768 163.622C116.593 164.99 103.553 164.99 86.9134 164.99H86.0863C69.4466 164.99 56.4064 164.99 46.232 163.622C35.8178 162.222 27.6002 159.3 21.1501 152.85C14.7 146.4 11.7782 138.182 10.378 127.768C9.01009 117.594 9.01016 104.554 9.01026 87.9139V87.0867C9.01016 70.4471 9.01009 57.4069 10.378 47.2325C11.7782 36.8183 14.7 28.6007 21.1501 22.1506C27.6002 15.7005 35.8178 12.7787 46.232 11.3785C56.4064 10.0106 69.4466 10.0107 86.0862 10.0108ZM96.5808 37.942C98.0737 35.3562 101.38 34.4702 103.966 35.9631L116.451 43.1715C118.345 44.2648 119.393 46.3912 119.108 48.5591C118.823 50.727 117.259 52.5095 115.147 53.0755L108.061 54.9743L109.243 55.6567C111.829 57.1496 112.714 60.456 111.222 63.0417C109.729 65.6275 106.422 66.5135 103.837 65.0206L91.3513 57.8122C89.4576 56.7189 88.409 54.5925 88.6944 52.4246C88.9799 50.2567 90.5431 48.4742 92.6552 47.9083L99.7416 46.0094L98.5597 45.327C95.9739 43.8341 95.0879 40.5277 96.5808 37.942ZM43.2388 76.2724C45.4587 74.2757 48.877 74.4568 50.8736 76.6768C54.2245 80.4024 57.829 82.0941 61.2707 82.0941C64.7123 82.0941 68.3169 80.4024 71.6677 76.6768C73.6644 74.4568 77.0826 74.2757 79.3026 76.2724C81.5226 78.269 81.7036 81.6873 79.707 83.9073C74.8848 89.2689 68.5496 92.9066 61.2707 92.9066C53.9917 92.9066 47.6566 89.2689 42.8344 83.9073C40.8377 81.6873 41.0188 78.269 43.2388 76.2724ZM93.6971 76.2724C95.9171 74.2757 99.3353 74.4568 101.332 76.6768C104.683 80.4024 108.287 82.0941 111.729 82.0941C115.171 82.0941 118.775 80.4024 122.126 76.6768C124.123 74.4568 127.541 74.2757 129.761 76.2724C131.981 78.269 132.162 81.6873 130.165 83.9073C125.343 89.2689 119.008 92.9066 111.729 92.9066C104.45 92.9066 98.1149 89.2689 93.2927 83.9073C91.2961 81.6873 91.4771 78.269 93.6971 76.2724Z" fill="#021863"/>
</g>
<defs>
<clipPath id="clip0_361_2121">
<rect width="195" height="195" fill="white" transform="translate(0.5 1)"/>
</clipPath>
</defs>
</svg>
