<svg width="24" height="24" viewBox="0 0 24 24" fill="none" xmlns="http://www.w3.org/2000/svg">
<g opacity="0.7">
<path fill-rule="evenodd" clip-rule="evenodd" d="M8.16663 7.50629C9.16076 5.7217 11.1533 4.89842 13.0052 5.08906C14.8263 5.27652 16.3287 6.40966 16.5804 8.42359C16.6449 8.93967 17.0836 9.32697 17.6037 9.327C19.4941 9.32712 20.6859 10.7816 20.905 12.6797C21.1204 14.5462 20.3262 16.333 18.7169 16.9565L16.3113 16.9566L15.8064 16.9567L15.6978 16.9567L15.6728 16.9567L15.6669 16.9568H15.6654H15.665H15.6649H15.6649C15.0953 16.957 14.6338 17.419 14.634 17.9886C14.6343 18.5582 15.0963 19.0197 15.6659 19.0194H15.6659H15.666H15.6663H15.6678L15.6737 19.0194L15.6986 19.0194L15.807 19.0194L16.3117 19.0193L18.8961 19.0191C19.0069 19.0191 19.117 19.0012 19.2222 18.9662C22.1574 17.9878 23.2468 14.9798 22.954 12.4432C22.6855 10.1167 21.1953 7.74323 18.4664 7.32811C17.7792 4.70827 15.5521 3.27767 13.2164 3.03723C10.9531 2.80424 8.4443 3.66191 6.894 5.69386C5.65387 5.31636 4.43733 5.75225 3.64377 6.58446C2.87355 7.39219 2.46469 8.60878 2.76511 9.82494C1.35052 10.9483 0.867147 12.776 1.03034 14.3975C1.22036 16.2853 2.32232 18.2887 4.35482 18.9662C4.45998 19.0012 4.57011 19.0191 4.68096 19.0191L7.26537 19.0193L7.77005 19.0194L7.87849 19.0194L7.90337 19.0194L7.90929 19.0194H7.91073H7.91109H7.91117H7.91119C8.48079 19.0197 8.94276 18.5582 8.94303 17.9886C8.94331 17.419 8.48178 16.957 7.91218 16.9568H7.91216H7.91206H7.9117H7.91023L7.90424 16.9567L7.87927 16.9567L7.77064 16.9567L7.2657 16.9566L4.86514 16.9565C3.90865 16.5616 3.21277 15.4837 3.08265 14.1909C2.94751 12.8482 3.45781 11.668 4.48819 11.164C4.74498 11.0383 4.93811 10.8118 5.02148 10.5383C5.10485 10.2649 5.07098 9.96907 4.92796 9.72155C4.5774 9.11485 4.72215 8.4425 5.13655 8.00792C5.52334 7.60229 6.08478 7.45636 6.69329 7.86233C6.93276 8.02208 7.22809 8.07449 7.50791 8.00687C7.78772 7.93925 8.02654 7.75777 8.16663 7.50629ZM12.5179 10.1512L11.7886 9.42193L11.0594 10.1512L7.82865 13.3819C7.42589 13.7847 7.42589 14.4377 7.82865 14.8404C8.23141 15.2432 8.88442 15.2432 9.28718 14.8404L10.7573 13.3703V19.9264C10.7573 20.496 11.219 20.9578 11.7886 20.9578C12.3582 20.9578 12.82 20.496 12.82 19.9264V13.3703L14.2901 14.8404C14.6928 15.2432 15.3458 15.2432 15.7486 14.8404C16.1514 14.4377 16.1514 13.7847 15.7486 13.3819L12.5179 10.1512Z" fill="white"/>
</g>
</svg>
