<svg width="254" height="256" viewBox="0 0 254 256" fill="none" xmlns="http://www.w3.org/2000/svg">
<path d="M44.5 188C67.9721 188 87 168.972 87 145.5C87 122.028 67.9721 103 44.5 103C21.0279 103 2 122.028 2 145.5C2 168.972 21.0279 188 44.5 188Z" fill="#5270ED"/>
<path d="M140 67C147.732 67 154 60.732 154 53C154 45.268 147.732 39 140 39C132.268 39 126 45.268 126 53C126 60.732 132.268 67 140 67Z" fill="#FFB636"/>
<path fill-rule="evenodd" clip-rule="evenodd" d="M147 124.604C150.072 124.604 152.563 127.095 152.563 130.167V135.363L157.06 132.766C159.721 131.23 163.123 132.142 164.659 134.802C166.195 137.463 165.284 140.865 162.622 142.401L158.121 144.999L162.625 147.6C165.285 149.136 166.197 152.538 164.661 155.198C163.125 157.858 159.723 158.77 157.062 157.234L152.563 154.637V159.833C152.563 162.905 150.072 165.396 147 165.396C143.928 165.396 141.438 162.905 141.438 159.833V154.632L136.93 157.234C134.27 158.77 130.868 157.858 129.332 155.198C127.796 152.538 128.708 149.136 131.368 147.6L135.871 144.999L131.37 142.401C128.709 140.865 127.798 137.463 129.334 134.802C130.87 132.142 134.272 131.23 136.933 132.766L141.438 135.367V130.167C141.438 127.095 143.928 124.604 147 124.604ZM107.932 124.604C111.004 124.604 113.495 127.095 113.495 130.167V135.363L117.992 132.766C120.653 131.23 124.055 132.142 125.591 134.802C127.127 137.463 126.215 140.865 123.555 142.401L119.053 144.999L123.557 147.6C126.217 149.136 127.129 152.538 125.593 155.198C124.057 157.858 120.655 158.77 117.994 157.234L113.495 154.637V159.833C113.495 162.905 111.004 165.396 107.932 165.396C104.86 165.396 102.37 162.905 102.37 159.833V154.632L97.8629 157.234C95.2024 158.77 91.8004 157.858 90.2644 155.198C88.7283 152.538 89.6399 149.136 92.3004 147.6L96.8035 144.999L92.3021 142.401C89.6416 140.865 88.73 137.463 90.2661 134.802C91.8021 132.142 95.2041 131.23 97.8646 132.766L102.37 135.367V130.167C102.37 127.095 104.86 124.604 107.932 124.604ZM186.072 124.604C189.144 124.604 191.634 127.095 191.634 130.167V135.363L196.132 132.766C198.793 131.23 202.195 132.142 203.731 134.802C205.267 137.463 204.355 140.865 201.695 142.401L197.193 144.999L201.696 147.6C204.357 149.136 205.268 152.538 203.732 155.198C202.196 157.858 198.794 158.77 196.134 157.234L191.634 154.637V159.833C191.634 162.905 189.144 165.396 186.072 165.396C183 165.396 180.509 162.905 180.509 159.833V154.632L176.003 157.234C173.342 158.77 169.94 157.858 168.404 155.198C166.868 152.538 167.779 149.136 170.44 147.6L174.943 144.999L170.442 142.401C167.782 140.865 166.87 137.463 168.406 134.802C169.942 132.142 173.344 131.23 176.004 132.766L180.509 135.367V130.167C180.509 127.095 183 124.604 186.072 124.604Z" fill="#021863"/>
<path fill-rule="evenodd" clip-rule="evenodd" d="M131.748 80.1043H162.252C175.882 80.1041 186.678 80.104 195.127 81.24C203.822 82.4091 210.86 84.8723 216.411 90.4226C222.603 96.6149 224.954 104.659 225.95 114.789C226.251 117.846 224.015 120.568 220.958 120.869C217.901 121.17 215.179 118.935 214.878 115.878C213.978 106.723 212.04 101.786 208.544 98.2892C205.405 95.1504 201.106 93.269 193.645 92.2658C186.023 91.241 175.975 91.2293 161.833 91.2293H132.167C118.024 91.2293 107.977 91.241 100.355 92.2658C92.8936 93.269 88.5945 95.1504 85.4557 98.2892C82.3169 101.428 80.4355 105.727 79.4324 113.189C78.4076 120.811 78.3958 130.858 78.3958 145C78.3958 159.142 78.4076 169.19 79.4324 176.812C80.4355 184.273 82.3169 188.572 85.4557 191.711C88.5945 194.85 92.8936 196.731 100.355 197.734C107.977 198.759 118.024 198.771 132.167 198.771H161.833C175.975 198.771 186.023 198.759 193.645 197.734C201.106 196.731 205.405 194.85 208.544 191.711C211.683 188.572 213.565 184.273 214.567 176.812C215.592 169.19 215.604 159.142 215.604 145C215.604 141.928 218.095 139.438 221.167 139.438C224.239 139.438 226.729 141.928 226.729 145V145.418C226.729 159.049 226.729 169.844 225.594 178.294C224.424 186.989 221.961 194.027 216.411 199.578C210.86 205.128 203.822 207.591 195.127 208.76C186.678 209.896 175.882 209.896 162.252 209.896H131.748C118.118 209.896 107.322 209.896 98.8731 208.76C90.1776 207.591 83.1396 205.128 77.5892 199.578C72.0388 194.027 69.5756 186.989 68.4066 178.294C67.2706 169.844 67.2707 159.049 67.2708 145.418V144.582C67.2707 130.951 67.2706 120.156 68.4066 111.707C69.5756 103.011 72.0388 95.973 77.5892 90.4226C83.1396 84.8723 90.1776 82.4091 98.8731 81.24C107.322 80.104 118.118 80.1041 131.748 80.1043Z" fill="#021863"/>
</svg>
